<?xml version="1.0" encoding="utf-8"?>
<!-- Generator: Adobe Illustrator 17.0.0, SVG Export Plug-In . SVG Version: 6.00 Build 0)  -->
<!DOCTYPE svg PUBLIC "-//W3C//DTD SVG 1.1//EN" "http://www.w3.org/Graphics/SVG/1.1/DTD/svg11.dtd">
<svg version="1.1" id="图层_1" xmlns="http://www.w3.org/2000/svg" xmlns:xlink="http://www.w3.org/1999/xlink" x="0px" y="0px"
	 width="500px" height="40.175px" viewBox="0 0 500 40.175" enable-background="new 0 0 500 40.175" xml:space="preserve">
<g>
	<polygon fill="#5C5C5C" points="0.07,25.22 120.942,25.22 120.942,26.946 0.07,26.946 	"/>
	<path fill="#C1292E" d="M20.232,9.219c0.103-0.1,0.185-0.2,0.25-0.299c0-0.132,0-0.245,0-0.347
		c-0.015-0.364,0.009-0.679,0.075-0.943c0.05-0.281,0.067-0.704,0.05-1.264c-0.05-0.465-0.258-0.904-0.62-1.315
		c-0.91-0.794-1.672-1.086-2.285-0.871c-0.332,0.099-0.769,0.093-1.315-0.024c-0.71-0.166-1.396-0.091-2.058,0.223
		c-0.318,0.133-0.546,0.192-0.696,0.175c-0.149-0.018-0.281-0.018-0.397,0c-0.066,0.017-0.107,0.031-0.125,0.049
		c-0.564,0.232-0.95,0.431-1.165,0.596c-0.016,0.033-0.034,0.083-0.051,0.15c-0.28,0.561-0.414,0.949-0.394,1.165
		c0.078,0.53,0.131,0.899,0.146,1.116c-0.031,0.513,0.053,0.929,0.249,1.242c0,0.017,0,0.033,0,0.049l0.051,0.028
		c0.296,0.246,0.553,0.445,0.77,0.595c0.03,0.031,0.057,0.057,0.074,0.072c0.213-0.065,0.405-0.092,0.569-0.072
		c0.235,0.049,0.482,0.049,0.745,0c0.216-0.069,0.433-0.074,0.647-0.026c0.267,0.034,0.478-0.007,0.644-0.123
		c0.182-0.068,0.48-0.089,0.896-0.074h0.023c0.165-0.099,0.284-0.18,0.349-0.249c0.051-0.065,0.105-0.132,0.176-0.198
		c0.011-0.115,0.056-0.206,0.121-0.271c0.068-0.118,0.125-0.283,0.174-0.499c0-0.15-0.022-0.355-0.073-0.62
		c-0.017-0.198-0.017-0.357,0-0.472c0.133-0.299,0.206-0.546,0.226-0.742c0-0.381,0.147-0.68,0.446-0.897
		c0.33-0.262,0.592-0.368,0.793-0.319c0.183,0.046,0.329,0.181,0.446,0.395c0.133,0.282,0.19,0.597,0.174,0.944
		C19.1,6.657,19.038,6.9,18.973,7.113c-0.099,0.233-0.229,0.445-0.397,0.644c-0.183,0.217-0.281,0.53-0.296,0.944
		c-0.02,0.083-0.034,0.173-0.051,0.271c0.051,0.051,0.098,0.111,0.149,0.179c0.016,0,0.033,0.022,0.051,0.072
		c0.216-0.016,0.477,0,0.793,0.051c0.302,0.034,0.57,0.042,0.821,0.021c0.031,0,0.053,0.013,0.075,0.027
		c0.03-0.049,0.048-0.073,0.048-0.073S20.182,9.235,20.232,9.219L20.232,9.219z M15.072,12.717c0-0.048,0.006-0.099,0.024-0.147
		c0.016-0.185,0-0.349-0.049-0.496c0-0.1,0-0.21,0-0.324c0-0.101,0-0.199,0-0.3c-0.05-0.065-0.11-0.105-0.175-0.122
		c-0.181-0.116-0.398-0.201-0.646-0.248h-0.024c-0.281,0.149-0.502,0.232-0.668,0.248c-0.2,0.031-0.38,0.051-0.546,0.051
		c-0.084,0.033-0.134,0.054-0.151,0.071c-0.184,0.117-0.305,0.234-0.374,0.348c-0.083,0.084-0.147,0.183-0.193,0.297
		c-0.021,0.331-0.06,0.597-0.129,0.797c-0.098,0.215-0.139,0.456-0.124,0.72c0.183-0.215,0.431-0.356,0.745-0.424
		c0.267-0.097,0.482-0.138,0.645-0.121c0.184,0.049,0.374,0.049,0.57,0c0.184-0.05,0.358-0.05,0.52,0c0.018,0,0.037,0,0.054,0
		C14.781,12.933,14.955,12.819,15.072,12.717L15.072,12.717z M22.816,19.841c0.082,0.414,0.088,0.744,0.023,0.995
		c-0.082,0.181-0.131,0.328-0.148,0.448c-0.068,0.181-0.132,0.304-0.198,0.37c-0.246,0.217-0.533,0.322-0.843,0.322
		c-0.283-0.015-0.521-0.156-0.72-0.422c-0.214-0.347-0.316-0.628-0.298-0.842c0.015-0.201-0.008-0.371-0.075-0.521
		c-0.05-0.134-0.05-0.272,0-0.424c0.05-0.18,0.05-0.372,0-0.569c-0.134-0.498-0.175-0.87-0.124-1.119
		c0.084-0.744,0.063-1.472-0.05-2.184c-0.017-0.199-0.017-0.38,0-0.546c0.018-0.183,0.018-0.456,0-0.818
		c-0.033-0.432-0.017-0.769,0.05-1.019c0.084-0.329,0.097-0.674,0.05-1.041c-0.05-0.199-0.082-0.448-0.1-0.746
		c-0.15-0.162-0.282-0.28-0.395-0.344c-0.201-0.201-0.349-0.334-0.447-0.4c-0.032-0.018-0.076-0.035-0.124-0.046
		c-0.515-0.152-1.027-0.178-1.54-0.077c-0.217,0.051-0.405,0.077-0.568,0.077c-0.185,0.028-0.309,0.071-0.375,0.121
		c-0.098,0.035-0.183,0.083-0.248,0.152c0.019,0.031,0.027,0.056,0.027,0.073c0,0.183,0.004,0.379,0.025,0.597
		c0.013,0.131,0,0.253-0.052,0.372c-0.018,0.016-0.025,0.05-0.025,0.1c0.133,0.164,0.28,0.304,0.448,0.42
		c0.014,0.017,0.034,0.035,0.048,0.051c0.213-0.016,0.473,0,0.769,0.049c0.315,0.016,0.596,0.016,0.842,0
		c0.265,0.016,0.523,0.107,0.771,0.272c0.281,0.181,0.419,0.445,0.419,0.795c0.021,0.296-0.145,0.528-0.495,0.695
		c-0.398,0.147-0.852,0.139-1.364-0.026c-0.363-0.098-0.745-0.113-1.143-0.048c-0.297,0.081-0.577,0.091-0.842,0.023h-0.026
		c-0.677,0.23-1.14,0.432-1.389,0.596l0.024,0.023c0.049,0.253,0,0.582-0.149,0.994c-0.03,0.185-0.039,0.332-0.022,0.448
		c0,0.099,0,0.275,0,0.52c0,0.201,0.031,0.374,0.095,0.52c0.035,0.102,0.075,0.183,0.124,0.248c0.218,0.136,0.267,0.323,0.152,0.572
		c-0.101,0.248-0.26,0.425-0.474,0.521c-0.132,0.016-0.248,0.016-0.347,0c-0.099-0.034-0.222-0.075-0.371-0.125
		c-0.348-0.099-0.603-0.403-0.768-0.915c-0.133-0.679-0.174-1.227-0.125-1.64c0.034-0.198,0.058-0.373,0.074-0.52
		c0-0.067,0-0.133,0-0.199c-0.03-0.115-0.074-0.208-0.123-0.273c-0.05-0.1-0.101-0.173-0.149-0.225c-0.15,0-0.281-0.006-0.399-0.023
		c-0.147-0.082-0.271-0.155-0.371-0.221c0,0.032,0.01,0.073,0.025,0.122c0,0.214-0.033,0.479-0.1,0.794
		c-0.114,0.265-0.163,0.497-0.149,0.694c-0.015,0.151-0.031,0.299-0.049,0.447c-0.048,0.118-0.066,0.249-0.048,0.398
		c0,0.147-0.033,0.307-0.103,0.474c-0.082,0.179-0.121,0.37-0.121,0.57c0,0.116-0.032,0.282-0.102,0.495
		c-0.247,0.614-0.402,1.1-0.47,1.467c-0.079,0.245-0.224,0.477-0.422,0.692c-0.296,0.251-0.57,0.396-0.817,0.449
		c-0.215,0.014-0.449-0.033-0.695-0.153c-0.216-0.166-0.359-0.355-0.424-0.571c-0.049-0.214-0.066-0.428-0.049-0.643
		c0.068-0.216,0.131-0.405,0.198-0.572c0.115-0.132,0.257-0.329,0.423-0.596c0.28-0.33,0.424-0.603,0.424-0.818
		c0.03-0.181,0.083-0.304,0.145-0.372c0.15-0.381,0.259-0.722,0.327-1.017c0.099-0.216,0.15-0.408,0.15-0.57
		c0-0.663,0.132-1.301,0.393-1.912c0.148-0.384,0.164-0.755,0.053-1.119c0.033-0.281,0.057-0.478,0.071-0.596
		c0.086-0.246,0.117-0.496,0.099-0.745c-0.065-0.413-0.075-0.793-0.022-1.141c0.031-0.314,0.014-0.925-0.053-1.836
		c-0.047-0.53-0.181-0.943-0.392-1.24C9.861,7.15,9.703,6.605,9.684,5.941C9.602,5.264,9.71,4.644,10.011,4.08
		c0.278-0.662,0.542-1.049,0.792-1.167c0.381-0.197,0.719-0.191,1.019,0.026c-0.018-0.016-0.018-0.026,0-0.026
		c0.065-0.019,0.181-0.019,0.345,0c0.103,0,0.25-0.006,0.445-0.026c0.383-0.132,0.755-0.165,1.118-0.097
		c0.265,0.065,0.471,0.076,0.622,0.026c0.345-0.165,0.601-0.226,0.768-0.174c0.097,0.016,0.222-0.01,0.373-0.075
		c0.397-0.165,0.742-0.198,1.042-0.097c0.31,0.081,0.631,0.088,0.939,0.02c0.516-0.081,0.957-0.088,1.318-0.02
		c0.235,0.031,0.422,0.039,0.572,0.02c0.183,0,0.327,0.051,0.448,0.151c0.181,0.114,0.368,0.164,0.568,0.149
		c0.265-0.015,0.478,0.009,0.648,0.076c0.215,0.113,0.354,0.23,0.42,0.344c0.084,0.182,0.248,0.332,0.496,0.452
		c0.414,0.229,0.695,0.601,0.842,1.115c0.072,0.278,0.072,0.578,0,0.893c-0.045,0.215-0.13,0.371-0.245,0.468
		c-0.118,0.136-0.183,0.283-0.201,0.45c-0.015,0.182-0.049,0.307-0.095,0.372c-0.085,0.195-0.101,0.369-0.051,0.52
		c0.051,0.148,0.051,0.33,0,0.548c-0.102,0.562-0.126,1.149-0.075,1.76c0,0.413-0.059,0.753-0.175,1.019
		c-0.049,0.148-0.04,0.356,0.028,0.619c0.049,0.218,0.041,0.473-0.028,0.773c-0.069,0.248-0.069,0.503,0,0.77
		c0.115,0.626,0.141,1.165,0.077,1.611c-0.103,0.762-0.068,1.323,0.097,1.688c0.314,0.959,0.481,1.734,0.497,2.332
		C22.653,19.079,22.717,19.493,22.816,19.841L22.816,19.841z M16.857,17.456c0.133-0.03,0.348-0.055,0.648-0.071
		c0.28-0.018,0.478-0.059,0.595-0.126c0.333-0.113,0.669-0.074,1.017,0.126c0.282,0.149,0.446,0.397,0.495,0.743
		c0.019,0.381-0.094,0.647-0.346,0.798c-0.312,0.196-0.753,0.261-1.315,0.196c-0.165-0.032-0.258-0.042-0.272-0.025
		c-0.102,0.016-0.207,0.025-0.324,0.025c-0.132,0-0.246,0.024-0.346,0.076c-0.297,0.099-0.671,0.089-1.116-0.027
		c-0.232-0.149-0.358-0.356-0.374-0.618c0.015-0.185,0.082-0.383,0.198-0.598c0.184-0.23,0.405-0.355,0.67-0.372
		C16.583,17.551,16.742,17.507,16.857,17.456L16.857,17.456z M13.51,6.065c0.082-0.051,0.146-0.124,0.197-0.222
		c0.017-0.133,0.199-0.19,0.544-0.173c0.247,0.014,0.459,0.105,0.621,0.271c0.167,0.251,0.274,0.497,0.325,0.745
		c0.03,0.115,0.072,0.225,0.124,0.322c0.015,0.082,0.015,0.182,0,0.299c0.049,0.231,0.079,0.406,0.098,0.52
		c0.017,0.134-0.008,0.307-0.075,0.521c-0.117,0.283-0.256,0.448-0.42,0.498c-0.152,0.068-0.349-0.026-0.596-0.275
		c-0.35-0.23-0.546-0.472-0.597-0.719c-0.165-0.381-0.255-0.645-0.273-0.794c0-0.098-0.023-0.282-0.075-0.546
		C13.402,6.231,13.442,6.082,13.51,6.065L13.51,6.065z M5.465,9.69c-0.015,0-0.023,0.009-0.023,0.027
		C5.31,9.829,5.11,9.895,4.847,9.914c-0.234,0.033-0.381,0.157-0.446,0.372c-0.136,0.315-0.357,0.57-0.671,0.768
		c-0.217,0.133-0.33,0.298-0.348,0.497c-0.033,0.282-0.133,0.497-0.295,0.647c-0.217,0.198-0.317,0.38-0.302,0.547
		c0.068,0.295,0.224,0.575,0.474,0.84c0.183,0.101,0.371,0.151,0.572,0.151c0.247,0.017,0.42,0.057,0.522,0.125
		c0.163,0.099,0.304,0.124,0.417,0.074c0.232-0.085,0.408-0.101,0.52-0.051c0.183,0.034,0.426-0.009,0.721-0.122
		c0.298-0.135,0.549-0.331,0.745-0.597c0-0.017,0-0.033,0-0.049c0-0.296,0.033-0.529,0.103-0.697
		c0.082-0.213,0.114-0.478,0.098-0.792c-0.035-0.298-0.109-0.503-0.221-0.621c-0.036-0.051-0.077-0.149-0.128-0.297
		c-0.068-0.182-0.156-0.332-0.271-0.445c-0.068-0.066-0.107-0.125-0.125-0.175c-0.018-0.051-0.051-0.102-0.1-0.149
		C5.929,9.839,5.716,9.756,5.465,9.69L5.465,9.69z M1.125,13.612c0.015-0.182-0.011-0.399-0.076-0.644
		c-0.051-0.251,0.009-0.532,0.173-0.847c0.249-0.578,0.498-0.915,0.747-1.017c0.161-0.082,0.254-0.248,0.274-0.498
		c0.015-0.23,0.13-0.502,0.344-0.818c0.132-0.279,0.137-0.552,0.026-0.82C2.595,8.839,2.534,8.713,2.439,8.599
		c-0.101-0.15-0.207-0.231-0.323-0.25C1.836,8.247,1.66,8.118,1.594,7.951c-0.066-0.082-0.148-0.148-0.25-0.198
		C1.213,7.686,1.158,7.58,1.171,7.431C1.189,7.33,1.14,7.223,1.022,7.109C0.911,6.991,0.842,6.861,0.823,6.71
		C0.809,6.231,0.849,5.959,0.949,5.892c0.116-0.099,0.165-0.208,0.15-0.322c0-0.166,0.132-0.505,0.394-1.017
		C1.81,3.956,2.017,3.606,2.116,3.508c0.067-0.046,0.127-0.156,0.173-0.32c0.066-0.133,0.157-0.249,0.275-0.349
		c0.098-0.065,0.155-0.156,0.174-0.273C2.784,2.418,2.869,2.31,2.984,2.244c0.101-0.033,0.201-0.149,0.3-0.346
		c0.265-0.484,0.471-0.712,0.62-0.699c0.148,0,0.272-0.031,0.369-0.098c0.167-0.1,0.373-0.115,0.621-0.048
		c0.203,0.065,0.349,0.093,0.448,0.074c0.263-0.066,0.572,0,0.919,0.199c0.397,0.28,0.606,0.579,0.619,0.891
		c0.018,0.301-0.032,0.484-0.145,0.549c-0.27,0.213-0.482,0.312-0.649,0.297C5.888,3.046,5.757,3.071,5.692,3.138
		c-0.134,0.1-0.284,0.14-0.449,0.123c-0.147-0.032-0.282,0-0.396,0.101c-0.1,0.082-0.183,0.123-0.25,0.123
		C4.498,3.468,4.401,3.517,4.299,3.632c-0.132,0.167-0.207,0.3-0.222,0.397c-0.034,0.185-0.099,0.3-0.2,0.349
		c-0.116,0.1-0.207,0.249-0.275,0.446C3.522,5.04,3.448,5.156,3.381,5.172C3.266,5.257,3.175,5.496,3.11,5.892
		C2.892,6.341,2.836,6.669,2.935,6.884C3.118,7.168,3.266,7.342,3.381,7.41c0.116,0.03,0.181,0.081,0.201,0.145
		c0.047,0.132,0.173,0.209,0.371,0.223c0.178,0.019,0.297,0.051,0.346,0.1C4.53,7.994,4.723,7.97,4.871,7.803
		C5.002,7.671,5.129,7.594,5.243,7.58c0.183-0.018,0.305-0.132,0.372-0.346C5.667,7.117,5.72,7.037,5.789,6.985
		c0.168-0.101,0.28-0.275,0.348-0.522c0.064-0.181,0.131-0.304,0.2-0.374c0.114-0.13,0.149-0.253,0.095-0.371
		C6.421,5.586,6.253,5.44,5.938,5.272C5.805,5.189,5.797,5.014,5.914,4.749c0.084-0.165,0.23-0.245,0.447-0.245
		c0.114-0.02,0.223-0.057,0.321-0.126c0.117-0.084,0.248-0.09,0.399-0.027C7.179,4.403,7.313,4.43,7.477,4.43
		C7.941,4.463,8.322,4.677,8.62,5.073c0.181,0.248,0.238,0.423,0.172,0.522C8.708,5.727,8.716,5.901,8.818,6.116
		c0.063,0.198,0.063,0.397,0,0.594C8.685,7.009,8.535,7.167,8.371,7.181C7.957,7.316,7.641,7.49,7.427,7.706
		C7.276,7.837,7.196,7.979,7.179,8.125C7.132,8.209,7.097,8.3,7.081,8.398c0,0.051,0.008,0.083,0.025,0.102
		C7.14,8.664,7.16,8.871,7.179,9.118c0.017,0.02,0.033,0.033,0.051,0.051c0.047,0.1,0.107,0.156,0.172,0.175
		c0.166,0.063,0.28,0.198,0.349,0.395c0.063,0.166,0.158,0.306,0.272,0.422c0.115,0.067,0.209,0.208,0.273,0.424
		c0.133,0.349,0.208,0.652,0.221,0.915c0.033,0.35,0.085,0.605,0.151,0.771c0.083,0.234,0.117,0.43,0.101,0.597
		c-0.018,0.363-0.128,0.67-0.328,0.918c-0.131,0.132-0.272,0.233-0.419,0.299c-0.082,0.099-0.209,0.204-0.375,0.321
		c-0.312,0.198-0.577,0.431-0.79,0.695c-0.319,0.38-0.772,0.595-1.365,0.645c-0.235,0-0.453,0.035-0.671,0.098
		c-0.284,0.069-0.549,0.027-0.794-0.122c-0.331-0.183-0.646-0.265-0.942-0.247c-0.482,0.032-0.947-0.133-1.389-0.498
		C1.295,14.33,1.105,13.874,1.125,13.612L1.125,13.612z M6.93,16.416c0.083-0.064,0.151-0.149,0.202-0.246
		c0.027-0.133,0.228-0.191,0.592-0.174c0.262,0,0.479,0.105,0.647,0.321c0.18,0.266,0.297,0.52,0.345,0.773
		c0.017,0.129,0.053,0.244,0.102,0.344c0.016,0.1,0.016,0.207,0,0.323c0.05,0.214,0.082,0.4,0.098,0.546
		c0.019,0.151-0.009,0.329-0.073,0.546c-0.148,0.297-0.307,0.471-0.471,0.518c-0.168,0.069-0.385-0.029-0.647-0.294
		c-0.35-0.263-0.545-0.532-0.592-0.797c-0.185-0.396-0.274-0.669-0.274-0.819c0-0.114-0.026-0.304-0.079-0.57
		C6.815,16.592,6.867,16.434,6.93,16.416L6.93,16.416z M4.273,17.16c0.103-0.033,0.187-0.08,0.251-0.147
		c0.05-0.117,0.246-0.117,0.595,0c0.23,0.08,0.395,0.231,0.496,0.444c0.082,0.3,0.114,0.574,0.101,0.819
		c-0.019,0.432,0.024,0.83,0.124,1.193c0.03,0.332-0.035,0.681-0.198,1.042c-0.017,0.233-0.037,0.406-0.05,0.522
		c-0.033,0.149-0.105,0.307-0.225,0.469c-0.215,0.236-0.405,0.351-0.571,0.351c-0.166,0.017-0.33-0.13-0.497-0.448
		c-0.23-0.331-0.338-0.621-0.321-0.869c-0.133-0.892-0.177-1.49-0.124-1.787c0.049-0.231,0.106-0.625,0.172-1.191
		C4.126,17.292,4.21,17.16,4.273,17.16L4.273,17.16z M1.274,17.334c0.113-0.465,0.32-0.742,0.616-0.845
		c0.283-0.081,0.52,0.01,0.723,0.275c0.148,0.248,0.148,0.578,0,0.992c-0.035,0.299-0.043,0.602-0.026,0.919
		c0.081,0.312,0.068,0.602-0.053,0.867c-0.115,0.282-0.27,0.53-0.47,0.747c-0.115,0.246-0.224,0.527-0.321,0.843
		c-0.083,0.331-0.223,0.547-0.425,0.644c-0.194,0.13-0.444,0.166-0.744,0.098c-0.282-0.081-0.455-0.271-0.519-0.571
		c-0.082-0.329-0.073-0.67,0.026-1.014c0.131-0.267,0.222-0.58,0.273-0.945c0-0.53,0.173-1.001,0.521-1.416
		C1.074,17.731,1.207,17.534,1.274,17.334L1.274,17.334z"/>
	<path fill="#C1292E" d="M34.784,18.769c0.17-0.199,0.382-0.356,0.65-0.47c0.245-0.116,0.47-0.275,0.669-0.474
		c0.346-0.249,0.629-0.429,0.844-0.545c0.378-0.231,0.851-0.528,1.414-0.895c0.45-0.329,0.771-0.553,0.971-0.669
		c0.113-0.198,0.268-0.355,0.469-0.472c0.466-0.282,0.904-0.603,1.315-0.967c0.332-0.233,0.622-0.315,0.868-0.25
		c0.382,0.102,0.564,0.324,0.549,0.672c-0.067,0.327-0.282,0.604-0.647,0.818c-0.182,0.116-0.348,0.281-0.497,0.496
		c-0.38,0.317-0.728,0.597-1.039,0.845c-0.267,0.131-0.48,0.33-0.648,0.595c-0.381,0.365-0.726,0.62-1.043,0.768
		c-0.079,0.166-0.132,0.349-0.147,0.548c-0.066,0.281-0.108,0.432-0.126,0.447c-0.133-0.015-0.27-0.015-0.421,0
		c-0.112,0.016-0.283,0.034-0.495,0.05c-0.066,0-0.11,0.007-0.127,0.025c-0.018,0-0.033,0.007-0.048,0.025
		c-0.23,0.147-0.431,0.33-0.596,0.544c-0.164,0.166-0.456,0.332-0.868,0.497c-0.235,0.101-0.481,0.282-0.744,0.548
		c-0.217,0.165-0.581,0.354-1.092,0.569c-0.675,0.332-1.153,0.507-1.415,0.52c-0.151-0.014-0.399,0.1-0.747,0.35
		c-0.394,0.264-0.777,0.404-1.138,0.42c-0.464,0.052-0.819,0-1.069-0.149c-0.314-0.196-0.525-0.494-0.62-0.889
		c-0.049-0.284,0.081-0.582,0.397-0.899c0.298-0.295,0.672-0.453,1.118-0.47c0.759-0.099,1.289-0.248,1.59-0.447
		c0.197-0.13,0.496-0.232,0.891-0.296C33.927,19.265,34.521,18.983,34.784,18.769L34.784,18.769z M41.49,22.591
		c-0.412,0.164-0.726,0.224-0.946,0.172c-0.277-0.099-0.501-0.156-0.67-0.172c-0.345-0.049-0.568-0.156-0.666-0.325
		c-0.068-0.182-0.176-0.352-0.328-0.52c-0.148-0.132-0.227-0.279-0.244-0.449c-0.036-0.132-0.1-0.251-0.2-0.37
		c-0.184-0.246-0.282-0.505-0.297-0.768c-0.019-0.282,0.051-0.476,0.197-0.574c0.232-0.164,0.532-0.148,0.896,0.052
		c0.163,0.095,0.353,0.229,0.568,0.397c0.118,0.064,0.231,0.1,0.347,0.1c0.316,0.096,0.779,0.063,1.39-0.1
		c0.793-0.151,1.299-0.332,1.517-0.546c0.079-0.132,0.193-0.207,0.345-0.223c0.346-0.15,0.725-0.48,1.143-0.995
		c0.15-0.215,0.282-0.382,0.398-0.493c0.296-0.296,0.544-0.779,0.745-1.44c0.131-0.695,0.122-1.191-0.031-1.488
		c-0.179-0.532-0.503-1.001-0.963-1.417c-0.083-0.049-0.156-0.083-0.227-0.096c-0.229,0.013-0.403,0.031-0.518,0.047
		c-0.25,0.049-0.447,0.082-0.595,0.1c-0.166,0.033-0.297,0.058-0.401,0.073c-0.096-0.015-0.179-0.18-0.244-0.495
		c-0.101-0.332-0.209-0.621-0.324-0.868c-0.069-0.1-0.105-0.174-0.126-0.225c-0.083-0.034-0.181-0.049-0.297-0.049
		c-0.43-0.082-0.729-0.089-0.896-0.024c-0.312,0.081-0.554,0.1-0.715,0.049c-0.019,0-0.034,0-0.051,0
		c-0.081,0.249-0.28,0.472-0.597,0.67c-0.183,0.116-0.33,0.257-0.445,0.421c-0.332,0.282-0.657,0.531-0.967,0.745
		c-0.236,0.134-0.435,0.306-0.595,0.522c-0.37,0.314-0.682,0.547-0.947,0.694c-0.167,0.084-0.332,0.21-0.497,0.373
		c-0.248,0.249-0.504,0.445-0.765,0.597c-0.219,0.098-0.408,0.244-0.574,0.449c-0.165,0.181-0.432,0.332-0.794,0.444
		c-0.195,0.081-0.421,0.249-0.668,0.497c-0.215,0.131-0.557,0.296-1.021,0.497c-0.611,0.281-1.041,0.418-1.289,0.418
		c-0.135-0.02-0.357,0.083-0.669,0.299c-0.348,0.232-0.698,0.355-1.046,0.375c-0.43,0.032-0.753-0.026-0.966-0.175
		c-0.298-0.181-0.481-0.456-0.548-0.818c-0.051-0.233,0.077-0.498,0.373-0.794c0.283-0.267,0.62-0.407,1.019-0.424
		c0.712-0.067,1.202-0.183,1.464-0.349c0.166-0.098,0.429-0.18,0.793-0.247c0.845-0.283,1.391-0.53,1.64-0.746
		c0.15-0.164,0.356-0.297,0.619-0.396c0.232-0.115,0.433-0.257,0.598-0.422c0.312-0.214,0.579-0.369,0.793-0.473
		c0.365-0.214,0.804-0.478,1.316-0.792c0.414-0.282,0.7-0.48,0.867-0.595c0.133-0.151,0.281-0.282,0.449-0.4
		c0.364-0.198,0.702-0.419,1.016-0.667l-0.024-0.025c-0.234-0.133-0.347-0.38-0.347-0.746c0.017-0.345,0.206-0.598,0.571-0.745
		c0.362-0.114,0.704-0.164,1.013-0.149c0.316,0.019,0.656,0.061,1.02,0.125c0.381,0.13,0.672,0.164,0.87,0.099
		c0.134-0.048,0.308-0.067,0.521-0.048c0.2,0.101,0.427,0.141,0.695,0.122c0.167-0.032,0.356,0.026,0.57,0.172
		c0.365,0.268,0.744,0.474,1.141,0.623c0.35,0.149,0.583,0.331,0.696,0.548c0.234,0.263,0.557,0.553,0.97,0.866
		c0.181,0.134,0.281,0.323,0.296,0.572c0.098,0.182,0.223,0.431,0.374,0.745c0.164,0.198,0.239,0.43,0.221,0.695
		c0.032,0.198,0.11,0.373,0.226,0.52c0.081,0.132,0.088,0.273,0.023,0.424c-0.097,0.18-0.115,0.404-0.051,0.668
		c0.116,0.182,0.071,0.554-0.149,1.12c-0.031,0.129-0.049,0.303-0.049,0.518c0,0.282-0.16,0.671-0.472,1.168
		c-0.413,0.497-0.696,0.752-0.844,0.767c-0.116,0.083-0.223,0.234-0.321,0.451c-0.249,0.328-0.627,0.652-1.143,0.966
		c-1.024,0.695-1.721,1.078-2.086,1.142C42.268,22.311,41.903,22.425,41.49,22.591L41.49,22.591z M33.399,2.388
		c-0.482-0.132-0.723-0.379-0.723-0.744c-0.013-0.365,0.11-0.646,0.371-0.845c0.319-0.264,0.706-0.405,1.166-0.421
		c0.286-0.016,0.582-0.058,0.894-0.123c0.433-0.166,0.922-0.251,1.469-0.251c0.682-0.014,1.216,0.011,1.615,0.077
		c0.51,0.133,1.052,0.165,1.61,0.099c0.861-0.117,1.623-0.016,2.282,0.296c0.168,0.118,0.408,0.165,0.72,0.151
		c0.351,0.015,0.706,0.173,1.069,0.47c0.413,0.25,0.628,0.472,0.647,0.672c0.017,0.197,0.104,0.372,0.271,0.521
		c0.216,0.231,0.316,0.654,0.297,1.266c0.052,0.296,0.124,0.554,0.226,0.771c0.133,0.214,0.2,0.552,0.2,1.014
		c0,0.53,0,1.028,0,1.491c-0.018,0.695-0.182,1.199-0.502,1.513c-0.247,0.383-0.649,0.681-1.214,0.897
		C43.4,9.47,42.879,9.553,42.231,9.486c-0.443-0.031-0.826-0.015-1.14,0.049c-0.364,0.133-0.704,0.148-1.02,0.052
		c-0.294-0.132-0.601-0.151-0.914-0.052c-0.366,0.185-0.702,0.201-1.018,0.052c-0.232-0.101-0.481-0.116-0.747-0.052
		c-0.083,0.299-0.198,0.579-0.346,0.844c-0.149,0.233-0.368,0.457-0.667,0.67c-0.151,0.119-0.283,0.258-0.401,0.425
		c-0.112,0.248-0.274,0.404-0.469,0.47c-0.23,0.082-0.431,0.206-0.597,0.371c-0.281,0.299-0.603,0.506-0.969,0.623
		c-0.281,0.132-0.553,0.279-0.819,0.446c-0.233,0.183-0.577,0.284-1.041,0.298c-0.397,0.018-0.747,0.125-1.043,0.322
		c-0.317,0.147-0.556,0.215-0.72,0.202c-0.197-0.018-0.355,0-0.472,0.046c-0.393,0.15-0.801,0.165-1.217,0.051
		c-0.33-0.097-0.502-0.208-0.519-0.321c-0.016-0.134-0.057-0.208-0.124-0.227c-0.064-0.048-0.108-0.155-0.128-0.322
		c-0.029-0.265,0.037-0.495,0.202-0.695c0.149-0.149,0.372-0.273,0.671-0.372c0.314-0.084,0.628-0.09,0.942-0.023
		c0.214,0.049,0.482,0.074,0.796,0.074c0.313-0.033,0.603-0.122,0.865-0.272c0.252-0.2,0.528-0.307,0.845-0.323
		c0.317-0.049,0.595-0.183,0.844-0.399c0.232-0.178,0.479-0.298,0.743-0.346c0.381-0.181,0.696-0.421,0.946-0.72
		c0.099-0.197,0.197-0.353,0.3-0.474c-0.417-0.129-0.806-0.11-1.171,0.051c-0.246,0.102-0.643,0.07-1.19-0.097
		c-0.579-0.151-0.923-0.358-1.041-0.621c-0.051-0.264-0.235-0.506-0.546-0.718c-0.246-0.151-0.347-0.481-0.298-0.993
		c-0.015-0.778-0.057-1.415-0.124-1.91C30.562,5.297,30.555,5,30.621,4.698c0.03-0.197,0.039-0.401,0.023-0.619
		c-0.019-0.45,0.056-0.849,0.223-1.193c0.113-0.249,0.257-0.432,0.418-0.548c0.154-0.118,0.308-0.18,0.476-0.198
		c0.195,0.033,0.372,0.08,0.52,0.149c0.147,0.132,0.257,0.322,0.325,0.574c0.113,0.296,0.139,0.772,0.07,1.438
		c-0.116,0.792-0.138,1.395-0.07,1.812C32.703,6.641,32.834,7.01,33,7.228c0.2,0.343,0.504,0.577,0.922,0.696
		c0.608,0.181,1.288,0.162,2.032-0.05c0.959-0.282,1.899-0.313,2.806-0.101c0.577,0.134,1.092,0.115,1.539-0.051
		c0.448-0.13,0.947-0.189,1.513-0.172c0.476,0.065,0.85-0.059,1.116-0.374c0.217-0.167,0.399-0.473,0.547-0.917
		C43.54,5.763,43.5,5.332,43.352,4.97c-0.119-0.333-0.176-0.631-0.176-0.895c-0.015-0.179-0.056-0.372-0.121-0.571
		c-0.2-0.246-0.309-0.421-0.328-0.516c-0.066-0.201-0.156-0.335-0.27-0.402c-0.18-0.065-0.33-0.148-0.448-0.247
		c-0.166-0.214-0.92-0.355-2.259-0.424c-0.927,0.019-1.697-0.007-2.308-0.071c-0.827-0.165-1.597-0.075-2.308,0.271
		C34.538,2.395,33.96,2.486,33.399,2.388L33.399,2.388z M36.678,4.002c0.624-0.133,1.244-0.143,1.858-0.028
		c0.479,0.135,0.9,0.151,1.264,0.05c0.447-0.116,0.82-0.089,1.12,0.076c0.296,0.213,0.453,0.504,0.469,0.869
		c-0.068,0.345-0.206,0.576-0.423,0.696c-0.296,0.131-0.58,0.139-0.844,0.024c-0.511-0.135-0.965-0.144-1.362-0.024
		c-0.48,0.18-0.928,0.189-1.342,0.024c-0.412-0.1-0.968-0.068-1.66,0.097c-0.516,0.166-0.953,0.166-1.316,0
		c-0.265-0.215-0.39-0.48-0.373-0.792c0.034-0.302,0.155-0.555,0.373-0.77c0.214-0.219,0.503-0.267,0.868-0.151
		C35.656,4.19,36.109,4.165,36.678,4.002L36.678,4.002z"/>
	<polygon fill="#231815" points="66.438,12.705 73.767,12.705 73.767,14.6 69.191,14.6 69.191,16.006 73.432,16.006 73.432,17.807 
		69.191,17.807 69.191,19.553 73.899,19.553 73.899,21.564 66.438,21.564 	"/>
	<polygon fill="#231815" points="74.756,12.705 83.078,12.705 83.078,14.886 80.282,14.886 80.282,21.564 77.552,21.564 
		77.552,14.886 74.756,14.886 	"/>
	<path fill="#231815" d="M100.512,21.564h2.865l-3.32-8.859h-2.991l-3.324,8.859h2.799l0.44-1.459h3.087L100.512,21.564
		L100.512,21.564z M97.562,18.187l0.967-3.185l0.964,3.185H97.562L97.562,18.187z"/>
	<path fill="#231815" d="M103.877,18.634l2.598-0.161c0.056,0.419,0.173,0.741,0.341,0.961c0.283,0.357,0.684,0.538,1.209,0.538
		c0.393,0,0.692-0.094,0.907-0.275c0.215-0.184,0.316-0.397,0.316-0.641c0-0.226-0.099-0.431-0.298-0.613
		c-0.202-0.183-0.668-0.352-1.396-0.514c-1.203-0.269-2.057-0.629-2.567-1.074c-0.518-0.448-0.775-1.018-0.775-1.712
		c0-0.455,0.129-0.882,0.394-1.289c0.265-0.405,0.664-0.722,1.189-0.955c0.531-0.231,1.261-0.347,2.181-0.347
		c1.131,0,1.994,0.209,2.589,0.63c0.595,0.421,0.948,1.093,1.061,2.008l-2.577,0.152c-0.064-0.398-0.208-0.689-0.43-0.867
		c-0.221-0.184-0.527-0.272-0.913-0.272c-0.316,0-0.557,0.068-0.723,0.202c-0.16,0.134-0.24,0.299-0.24,0.492
		c0,0.141,0.065,0.268,0.206,0.381c0.125,0.115,0.429,0.224,0.915,0.325c1.195,0.258,2.049,0.519,2.569,0.783
		c0.516,0.265,0.892,0.592,1.132,0.983c0.231,0.39,0.35,0.827,0.35,1.311c0,0.569-0.156,1.093-0.47,1.572
		c-0.312,0.479-0.752,0.844-1.318,1.092c-0.564,0.246-1.276,0.374-2.135,0.374c-1.503,0-2.548-0.292-3.127-0.87
		C104.281,20.267,103.954,19.53,103.877,18.634L103.877,18.634z"/>
	<polygon fill="#231815" points="113.487,12.705 120.813,12.705 120.813,14.6 116.238,14.6 116.238,16.006 120.479,16.006 
		120.479,17.807 116.238,17.807 116.238,19.553 120.942,19.553 120.942,21.564 113.487,21.564 	"/>
	<polygon fill="#231815" points="55.374,10.368 58.109,10.368 61.675,16.567 61.675,10.368 64.426,10.368 64.426,21.55 
		61.675,21.55 58.124,15.378 58.124,21.55 55.374,21.55 	"/>
	<polygon fill="#231815" points="84.221,10.368 92.043,10.368 92.043,12.761 87.16,12.761 87.16,14.534 91.689,14.534 
		91.689,16.808 87.16,16.808 87.16,19.012 92.187,19.012 92.187,21.55 84.221,21.55 	"/>
	<path fill="#231815" d="M51.52,27.831v9.32H49.1v-6.095c-0.396,0.311-0.771,0.564-1.138,0.757
		c-0.364,0.199-0.826,0.386-1.377,0.563v-2.075c0.815-0.279,1.45-0.621,1.897-1.012c0.453-0.394,0.806-0.878,1.059-1.458
		L51.52,27.831L51.52,27.831z"/>
	<path fill="#231815" d="M64.129,28.826c-0.259-0.329-0.587-0.573-0.985-0.74c-0.4-0.167-0.94-0.256-1.62-0.256
		c-1.162,0-2.066,0.387-2.718,1.156c-0.648,0.767-0.973,1.978-0.973,3.634c0,1.129,0.153,2.037,0.463,2.721
		c0.31,0.689,0.728,1.185,1.246,1.501c0.521,0.312,1.209,0.467,2.064,0.467c0.722,0,1.314-0.129,1.788-0.386
		c0.476-0.257,0.846-0.633,1.117-1.132c0.267-0.502,0.401-1.052,0.401-1.656c0-0.895-0.267-1.636-0.796-2.217
		c-0.528-0.584-1.172-0.879-1.943-0.879c-0.393,0-0.74,0.078-1.04,0.227c-0.305,0.149-0.598,0.371-0.882,0.681
		c0.078-0.983,0.191-1.625,0.348-1.923c0.215-0.418,0.518-0.627,0.904-0.627c0.219,0,0.397,0.073,0.546,0.215
		c0.143,0.144,0.25,0.395,0.317,0.745l2.361-0.31C64.592,29.56,64.392,29.148,64.129,28.826L64.129,28.826z M60.671,33.003
		c0.225-0.262,0.504-0.392,0.839-0.392c0.326,0,0.594,0.134,0.818,0.408c0.217,0.271,0.326,0.669,0.326,1.182
		c0,0.51-0.106,0.888-0.317,1.141c-0.212,0.256-0.472,0.382-0.789,0.382c-0.338,0-0.631-0.142-0.864-0.421
		c-0.232-0.282-0.351-0.672-0.351-1.172C60.334,33.643,60.443,33.265,60.671,33.003L60.671,33.003z"/>
	<path fill="#231815" d="M72.599,30.635l-2.26-0.431c0.185-0.763,0.547-1.351,1.083-1.763c0.534-0.403,1.288-0.611,2.265-0.611
		c1.126,0,1.933,0.226,2.437,0.667c0.499,0.449,0.75,1.01,0.75,1.68c0,0.397-0.1,0.749-0.306,1.074
		c-0.203,0.32-0.51,0.598-0.919,0.842c0.333,0.087,0.587,0.188,0.763,0.31c0.286,0.182,0.508,0.433,0.671,0.738
		c0.154,0.309,0.233,0.669,0.233,1.099c0,0.539-0.133,1.047-0.393,1.54c-0.265,0.489-0.642,0.87-1.133,1.132
		c-0.493,0.265-1.143,0.397-1.946,0.397c-0.779,0-1.398-0.1-1.85-0.296c-0.45-0.194-0.818-0.481-1.11-0.857
		c-0.29-0.381-0.517-0.854-0.673-1.424l2.387-0.341c0.095,0.515,0.233,0.874,0.434,1.071c0.2,0.201,0.449,0.297,0.757,0.297
		c0.32,0,0.588-0.124,0.798-0.375c0.214-0.249,0.321-0.583,0.321-1.004c0-0.426-0.1-0.753-0.31-0.988
		c-0.204-0.235-0.484-0.351-0.838-0.351c-0.189,0-0.448,0.049-0.781,0.151l0.126-1.824c0.137,0.018,0.238,0.027,0.315,0.027
		c0.315,0,0.579-0.103,0.792-0.316c0.208-0.21,0.317-0.459,0.317-0.75c0-0.274-0.084-0.498-0.241-0.661
		c-0.151-0.163-0.372-0.246-0.644-0.246c-0.28,0-0.514,0.086-0.693,0.267C72.777,29.868,72.655,30.186,72.599,30.635L72.599,30.635z
		"/>
	<polygon fill="#231815" points="0.068,30.483 1.907,30.483 2.576,33.977 3.547,30.483 5.378,30.483 6.35,33.972 7.024,30.483 
		8.858,30.483 7.473,36.764 5.567,36.764 4.462,32.808 3.364,36.764 1.464,36.764 	"/>
	<polygon fill="#231815" points="12.919,30.483 14.763,30.483 15.428,33.977 16.398,30.483 18.224,30.483 19.198,33.972 
		19.876,30.483 21.707,30.483 20.322,36.764 18.417,36.764 17.314,32.808 16.218,36.764 14.315,36.764 	"/>
	<polygon fill="#231815" points="25.771,30.483 27.611,30.483 28.279,33.977 29.25,30.483 31.076,30.483 32.048,33.972 
		32.724,30.483 34.56,30.483 33.173,36.764 31.268,36.764 30.165,32.808 29.065,36.764 27.166,36.764 	"/>
	<polygon fill="#231815" points="39.723,32.736 41.591,32.736 41.591,34.481 39.723,34.481 	"/>
	<polygon fill="#231815" points="82.942,32.736 84.805,32.736 84.805,34.481 82.942,34.481 	"/>
	<path fill="#231815" d="M95.179,34.185l1.707,0.515c-0.118,0.48-0.298,0.88-0.545,1.198c-0.246,0.319-0.549,0.564-0.917,0.726
		c-0.363,0.165-0.825,0.248-1.391,0.248c-0.682,0-1.241-0.101-1.674-0.298c-0.432-0.2-0.809-0.549-1.125-1.044
		c-0.314-0.503-0.473-1.143-0.473-1.921c0-1.041,0.282-1.839,0.834-2.397c0.553-0.56,1.338-0.838,2.352-0.838
		c0.794,0,1.416,0.163,1.873,0.481c0.452,0.32,0.788,0.812,1.01,1.472l-1.718,0.385c-0.061-0.193-0.122-0.334-0.19-0.421
		c-0.107-0.15-0.241-0.262-0.399-0.344c-0.159-0.083-0.333-0.12-0.528-0.12c-0.444,0-0.783,0.175-1.021,0.529
		c-0.177,0.261-0.266,0.674-0.266,1.236c0,0.695,0.108,1.172,0.317,1.43c0.213,0.259,0.513,0.389,0.897,0.389
		c0.372,0,0.651-0.108,0.843-0.314C94.955,34.885,95.094,34.583,95.179,34.185L95.179,34.185z"/>
	<path fill="#231815" d="M102.531,35.461c0.288,0.487,0.664,0.845,1.127,1.072c0.466,0.227,1.052,0.339,1.762,0.339
		c0.697,0,1.28-0.132,1.746-0.392c0.466-0.262,0.825-0.63,1.068-1.1c0.25-0.467,0.372-1.071,0.372-1.806
		c0-1.01-0.283-1.794-0.847-2.358c-0.565-0.559-1.367-0.843-2.416-0.843c-1.02,0-1.82,0.288-2.39,0.858
		c-0.572,0.572-0.854,1.369-0.854,2.397C102.1,34.363,102.242,34.972,102.531,35.461L102.531,35.461z M104.399,32.267
		c0.237-0.277,0.549-0.414,0.94-0.414c0.406,0,0.732,0.135,0.968,0.409c0.235,0.272,0.355,0.705,0.355,1.295
		c0,0.699-0.113,1.187-0.341,1.456c-0.224,0.274-0.549,0.407-0.967,0.407c-0.4,0-0.725-0.135-0.956-0.415
		c-0.234-0.276-0.353-0.729-0.353-1.363C104.045,33.002,104.164,32.542,104.399,32.267L104.399,32.267z"/>
	<path fill="#231815" d="M119.075,30.383c-0.637,0-1.022,0.367-1.251,0.678c-0.293-0.421-0.657-0.678-1.31-0.678
		c-0.454,0-0.82,0.167-1.117,0.464c0-0.015,0-0.319,0-0.319h-1.652v5.959h1.705v-3.578c0-0.839,0.374-0.839,0.533-0.839
		c0.437,0,0.506,0.26,0.506,0.88v3.537h1.706v-3.526c0-0.892,0.438-0.892,0.604-0.892c0.289,0,0.436,0.286,0.436,0.849v3.568h1.705
		v-4.032C120.942,31.197,120.209,30.383,119.075,30.383L119.075,30.383z"/>
</g>
<g>
	<path fill="#FF3333" d="M201.043,34.157c0,3.3-2.7,6-6,6h-28c-3.3,0-6-2.7-6-6v-28c0-3.3,2.7-6,6-6h28c3.3,0,6,2.7,6,6V34.157z"/>
</g>
<g>
	<path fill="#E91B51" d="M249.939,34.175c0,3.3-2.7,6-6,6h-28c-3.3,0-6-2.7-6-6v-28c0-3.3,2.7-6,6-6h28c3.3,0,6,2.7,6,6V34.175z"/>
</g>
<g>
	<path fill="#E51419" d="M298.187,34.166c0,3.3-2.7,6-6,6h-28c-3.3,0-6-2.7-6-6v-28c0-3.3,2.7-6,6-6h28c3.3,0,6,2.7,6,6V34.166z"/>
</g>
<g>
	<path fill="#63ACE6" d="M341.317,34.166c0,3.3-2.7,6-6,6h-28c-3.3,0-6-2.7-6-6v-28c0-3.3,2.7-6,6-6h28c3.3,0,6,2.7,6,6V34.166z"/>
</g>
<path fill="#FFFFFF" d="M272.291,22.02c-0.229,0-0.466-0.041-0.712-0.128c-0.816-0.292-1.3-0.969-1.361-1.856
	c-0.117-1.698,1.478-4.296,5.14-6.073c3.146-1.526,6.328-1.36,9.136-1.213c1.894,0.1,3.683,0.194,5.115-0.278
	c1.041-0.342,1.853-0.976,2.483-1.953c-2.08,1.151-4.242,1.232-6.304,1.116c-0.268-0.015-0.474-0.245-0.459-0.513
	c0.016-0.268,0.246-0.474,0.515-0.458c2.375,0.134,4.888-0.011,7.162-1.967l1.395-1.2l-0.618,1.731
	c-0.798,2.237-2.027,3.562-3.869,4.167c-1.607,0.529-3.484,0.43-5.472,0.326c-2.69-0.141-5.739-0.301-8.659,1.117
	c-3.116,1.512-4.707,3.739-4.592,5.145c0.041,0.498,0.268,0.833,0.716,0.992c0.746,0.267,1.407-0.264,2.605-1.305
	c1.151-1,2.584-2.262,4.798-3.077c0.424-0.156,0.533-0.352,0.479-0.599c-0.045-0.201-0.268-0.298-0.622-0.228
	c-1.982,0.393-4.386,1.894-5.958,3.748c-0.173,0.205-0.481,0.231-0.687,0.058c-0.206-0.173-0.232-0.48-0.058-0.685
	c1.729-2.041,4.26-3.617,6.476-4.057c1.008-0.2,1.598,0.284,1.786,0.9c0.188,0.615-0.137,1.451-1.116,1.812
	c-2.047,0.753-3.369,1.913-4.46,2.862C274.168,21.26,273.293,22.02,272.291,22.02z M273.232,24.062
	c1.194-0.361,2.516-1.208,4.287-2.746c2.093-1.818,3.691-2.149,5.543-2.531c1.651-0.341,3.483-0.72,5.846-2.256
	c-1.386,2.256-3.188,3.264-4.259,3.689c-0.25,0.099-0.372,0.382-0.272,0.631c0.099,0.249,0.383,0.372,0.633,0.272
	c1.46-0.58,4.14-2.128,5.672-5.975l0.683-1.715l-1.441,1.156c-3,2.406-5.064,2.832-7.06,3.245c-1.903,0.393-3.7,0.764-5.985,2.749
	c-3.249,2.822-5.05,3.344-6.883,1.996c-0.814-0.599-1.22-1.8-1.062-3.136c0.155-1.295,1.104-4.554,6.581-6.857
	c2.827-1.188,5.551-1.183,8.326-1.068c0.267,0.011,0.496-0.197,0.507-0.466c0.011-0.268-0.198-0.495-0.466-0.506
	c-2.774-0.115-5.735-0.122-8.745,1.144c-5.949,2.501-6.996,6.175-7.171,7.638c-0.2,1.682,0.356,3.228,1.452,4.034
	c0.817,0.601,1.655,0.899,2.537,0.899C272.371,24.261,272.795,24.194,273.232,24.062z M272.538,32.833
	c4.238-0.165,8.532-2.128,11.206-5.12c1.563-1.75,2.353-3.642,2.224-5.328c-0.02-0.267-0.253-0.468-0.522-0.447
	c-0.269,0.02-0.47,0.253-0.449,0.521c0.108,1.42-0.595,3.056-1.981,4.607c-2.503,2.802-6.533,4.64-10.516,4.795
	c-0.269,0.011-0.478,0.236-0.468,0.505c0.01,0.262,0.226,0.467,0.486,0.467C272.525,32.833,272.532,32.833,272.538,32.833z
	 M270.721,25.903c0.06-0.262-0.104-0.523-0.367-0.583c-0.128-0.03-0.235-0.063-0.37-0.106c-0.042-0.013-0.086-0.027-0.132-0.041
	c-1.405-0.436-2.485-1.564-2.964-3.094c-0.662-2.113-0.073-4.629,1.575-6.732l1.096-1.399l-1.658,0.647
	c-2.344,0.914-4.182,2.593-5.173,4.726c-0.113,0.244-0.007,0.533,0.237,0.645c0.244,0.113,0.534,0.007,0.647-0.236
	c0.651-1.401,1.715-2.584,3.072-3.439c-0.409,0.769-0.701,1.565-0.871,2.382c-0.265,1.271-0.215,2.549,0.144,3.697
	c0.576,1.84,1.89,3.201,3.605,3.733c0.045,0.014,0.086,0.027,0.126,0.04c0.144,0.046,0.281,0.088,0.448,0.126
	c0.036,0.008,0.072,0.012,0.109,0.012C270.468,26.28,270.669,26.128,270.721,25.903z M275.704,30.175
	c2.055-0.688,3.982-1.746,5.425-2.978c1.424-1.215,2.299-2.524,2.462-3.684c0.138-0.98-0.189-1.842-1.065-2.399
	c-1.553-0.987-3.032,0.178-4.638,1.469c-1.581,1.271-3.373,2.712-5.729,2.882c-0.269,0.02-0.47,0.253-0.451,0.52
	c0.02,0.268,0.253,0.469,0.522,0.45c2.66-0.192,4.662-1.803,6.27-3.096c1.633-1.312,2.603-1.961,3.473-1.424
	c0.553,0.341,0.74,0.84,0.653,1.463c-0.251,1.781-3.025,4.466-7.232,5.875c-0.255,0.085-0.393,0.361-0.307,0.616
	c0.068,0.203,0.258,0.332,0.462,0.332C275.6,30.201,275.652,30.193,275.704,30.175z M273.725,30.641
	c0.266-0.043,0.446-0.292,0.403-0.557s-0.294-0.445-0.558-0.402c-2.219,0.359-4.332,0.126-6.279-0.693
	c-3.161-1.328-4.822-4.281-4.231-7.524c0.048-0.264-0.128-0.518-0.392-0.566c-0.265-0.048-0.519,0.127-0.567,0.392
	c-0.313,1.716-0.046,3.487,0.75,4.987c0.851,1.6,2.255,2.847,4.062,3.607c1.477,0.621,3.038,0.932,4.663,0.932
	C272.281,30.817,272.998,30.758,273.725,30.641z M273.591,28.423c4.395-0.855,6.54-3.396,7.71-4.634
	c0.184-0.195,0.175-0.504-0.021-0.688c-0.196-0.184-0.505-0.175-0.689,0.02c-1.1,1.165-3.388,3.588-7.475,4.384
	c-1.388,0.27-2.618,0.16-3.738-0.115c-0.262-0.064-0.525,0.095-0.59,0.356c-0.064,0.261,0.096,0.524,0.357,0.589
	c0.641,0.158,1.39,0.29,2.106,0.29C271.94,28.624,272.845,28.569,273.591,28.423z M267.868,27.376
	c0.139-0.23,0.065-0.529-0.167-0.667c-1.721-1.032-2.562-2.645-2.724-3.806c-0.036-0.266-0.283-0.452-0.55-0.415
	c-0.266,0.037-0.452,0.282-0.415,0.549c0.2,1.438,1.172,3.298,3.187,4.506c0.079,0.047,0.165,0.069,0.251,0.069
	C267.615,27.612,267.777,27.528,267.868,27.376z"/>
<g>
	<g>
		<path fill="#FFFFFF" d="M229.939,5.982c-7.838,0-14.191,6.353-14.191,14.192s6.353,14.193,14.191,14.193
			c7.839,0,14.192-6.354,14.192-14.193S237.778,5.982,229.939,5.982z M229.939,32.589c-6.864,0-12.412-5.551-12.412-12.415
			s5.548-12.412,12.412-12.412s12.413,5.548,12.413,12.412C242.352,27.038,236.803,32.589,229.939,32.589z"/>
		<path fill="#FFFFFF" d="M233.917,16.48c-1.097-0.913-2.496-1.439-3.978-1.439c-1.481,0-2.881,0.525-3.978,1.439
			c-1.864-2.611-6.902-1.825-6.902,2.304c0,2.175,1.736,3.912,3.808,3.912c0.127,0,0.255,0,0.383-0.043
			c0.17,4.48,3.43,5.09,6.689,5.09s6.52-0.61,6.689-5.09c0.128,0.043,0.256,0.043,0.383,0.043c2.072,0,3.808-1.737,3.808-3.912
			C240.82,14.655,235.781,13.869,233.917,16.48z M225.961,21.306c-0.511,0-0.932-0.436-0.932-0.956c0-0.521,0.421-0.956,0.932-0.956
			c0.548,0,0.973,0.436,0.973,0.956C226.934,20.871,226.509,21.306,225.961,21.306z M229.939,25.753
			c-0.978,0-1.95-0.511-1.821-1.534l0.213-1.783c0.085-0.78,0.634-1.476,1.437-1.565l0.17,0.005l0.17-0.005
			c0.805,0.089,1.353,0.785,1.439,1.565l0.212,1.783C231.888,25.242,230.919,25.753,229.939,25.753z M233.917,21.306
			c-0.549,0-0.973-0.436-0.973-0.956c0-0.521,0.424-0.956,0.973-0.956c0.511,0,0.933,0.436,0.933,0.956
			C234.85,20.871,234.428,21.306,233.917,21.306z"/>
	</g>
</g>
<path fill="#FFFFFF" d="M192.117,10.153h-22.149c-0.059,0.004-1.765,0.123-1.765,1.765V30.16h25.682V11.745
	C193.78,10.273,192.184,10.158,192.117,10.153z M191.42,11.614l-10.377,10.635l-10.377-10.635H191.42z M169.663,12.678l7.299,7.479
	l-7.299,7.479V12.678z M170.666,28.701l7.315-7.498l2.162,2.216c0.004,0.004,0.416,0.417,0.937,0.417
	c0.301,0,0.591-0.141,0.861-0.417l2.163-2.216l7.315,7.498H170.666z M192.423,27.637l-7.299-7.48l7.299-7.479V27.637z"/>
<g>
	<path fill="#FFFFFF" d="M330.704,33.097H311.93c-1.828,0-3.155-1.327-3.155-3.155c0-1.205,1.083-2.876,2.039-4.35
		c0.206-0.318,0.404-0.622,0.576-0.902c0.863-1.396,2.815-3.753,4.657-4.524c0.338-0.141,0.723,0.018,0.864,0.354
		c0.141,0.336-0.018,0.723-0.354,0.864c-1.327,0.555-3.098,2.47-4.044,4c-0.178,0.288-0.38,0.6-0.592,0.926
		c-0.771,1.189-1.827,2.817-1.827,3.632c0,1.267,0.921,1.835,1.835,1.835h18.775c1.08,0,1.835-0.754,1.835-1.835
		c0-0.944-0.933-2.806-2.775-5.534c-0.058-0.086-0.121-0.186-0.191-0.298c-0.745-1.19-2.295-3.665-8.256-3.665l-0.056-0.002
		c-4.526-0.383-7.811-3.69-7.811-7.864c0-4.338,3.529-7.866,7.866-7.866c4.338,0,7.866,3.529,7.866,7.866
		c0,0.955-0.17,1.889-0.504,2.776c-0.015,0.045-0.522,1.467-1.642,2.587c-0.258,0.258-0.676,0.258-0.933,0
		c-0.258-0.258-0.258-0.676,0-0.933c0.901-0.901,1.331-2.094,1.335-2.106c0.283-0.751,0.424-1.528,0.424-2.324
		c0-3.61-2.937-6.546-6.546-6.546s-6.546,2.937-6.546,6.546c0,3.462,2.763,6.212,6.575,6.546c6.669,0.008,8.545,3.005,9.346,4.285
		c0.061,0.098,0.116,0.185,0.166,0.26c1.397,2.07,3.001,4.653,3.001,6.273C333.859,31.74,332.503,33.097,330.704,33.097z"/>
</g>
<g>
	<g>
		<g>
			<path fill="#3E3A39" d="M443.702,27.255l-0.775,3.917c-0.102,0.511-0.238,0.715-0.757,0.715h-0.23
				c-0.459,0-0.697-0.221-0.808-0.663l-0.673-2.606c-0.008-0.034-0.008-0.042-0.026-0.042c-0.016,0-0.016,0.008-0.026,0.042
				l-0.671,2.606c-0.112,0.443-0.35,0.663-0.809,0.663h-0.23c-0.519,0-0.655-0.204-0.757-0.715l-0.775-3.917
				c0-0.008,0-0.016,0-0.026c0-0.092,0.076-0.17,0.17-0.17h0.826c0.086,0,0.146,0.078,0.154,0.154l0.537,3.602
				c0.008,0.076,0.024,0.118,0.042,0.118c0.016,0,0.042-0.034,0.06-0.118l0.706-2.861c0.086-0.332,0.188-0.367,0.477-0.367h0.597
				c0.289,0,0.391,0.034,0.477,0.367l0.707,2.861c0.016,0.084,0.042,0.118,0.058,0.118c0.018,0,0.034-0.042,0.044-0.118l0.535-3.602
				c0.01-0.076,0.068-0.154,0.154-0.154h0.826c0.094,0,0.17,0.078,0.17,0.17C443.702,27.239,443.702,27.247,443.702,27.255z"/>
			<path fill="#3E3A39" d="M451.184,27.255l-0.775,3.917c-0.102,0.511-0.238,0.715-0.757,0.715h-0.23
				c-0.461,0-0.699-0.221-0.809-0.663l-0.673-2.606c-0.008-0.034-0.008-0.042-0.024-0.042c-0.018,0-0.018,0.008-0.026,0.042
				l-0.673,2.606c-0.11,0.443-0.349,0.663-0.809,0.663h-0.229c-0.521,0-0.657-0.204-0.759-0.715l-0.774-3.917
				c0-0.008,0-0.016,0-0.026c0-0.092,0.076-0.17,0.17-0.17h0.826c0.084,0,0.144,0.078,0.152,0.154l0.537,3.602
				c0.008,0.076,0.026,0.118,0.042,0.118c0.018,0,0.044-0.034,0.06-0.118l0.707-2.861c0.084-0.332,0.186-0.367,0.477-0.367h0.595
				c0.29,0,0.393,0.034,0.477,0.367l0.707,2.861c0.018,0.084,0.042,0.118,0.06,0.118c0.016,0,0.034-0.042,0.042-0.118l0.537-3.602
				c0.008-0.076,0.068-0.154,0.152-0.154h0.827c0.092,0,0.17,0.078,0.17,0.17C451.184,27.239,451.184,27.247,451.184,27.255z"/>
			<path fill="#3E3A39" d="M458.664,27.255l-0.775,3.917c-0.102,0.511-0.238,0.715-0.757,0.715h-0.23
				c-0.461,0-0.699-0.221-0.809-0.663l-0.673-2.606c-0.008-0.034-0.008-0.042-0.024-0.042c-0.018,0-0.018,0.008-0.026,0.042
				l-0.673,2.606c-0.11,0.443-0.349,0.663-0.809,0.663h-0.229c-0.521,0-0.657-0.204-0.759-0.715l-0.774-3.917
				c0-0.008,0-0.016,0-0.026c0-0.092,0.076-0.17,0.17-0.17h0.826c0.084,0,0.144,0.078,0.152,0.154l0.537,3.602
				c0.008,0.076,0.026,0.118,0.042,0.118c0.018,0,0.044-0.034,0.06-0.118l0.707-2.861c0.084-0.332,0.186-0.367,0.477-0.367h0.595
				c0.29,0,0.393,0.034,0.477,0.367l0.707,2.861c0.018,0.084,0.042,0.118,0.06,0.118c0.016,0,0.034-0.042,0.042-0.118l0.537-3.602
				c0.008-0.076,0.068-0.154,0.152-0.154h0.827c0.092,0,0.17,0.078,0.17,0.17C458.664,27.239,458.664,27.247,458.664,27.255z"/>
			<path fill="#3E3A39" d="M460.873,31.861h-0.757c-0.094,0-0.17-0.076-0.17-0.17v-0.962c0-0.094,0.076-0.162,0.17-0.162h0.757
				c0.094,0,0.17,0.068,0.17,0.162v0.962C461.043,31.785,460.967,31.861,460.873,31.861z"/>
			<path fill="#3E3A39" d="M465.351,31.861h-0.835c-0.094,0-0.17-0.076-0.17-0.17v-4.963l-1.004,0.341
				c-0.044,0.016-0.078,0.016-0.102,0.016c-0.06,0-0.094-0.026-0.094-0.102v-0.826c0-0.052,0.016-0.076,0.06-0.094l1.396-0.493
				c0.05-0.018,0.102-0.034,0.195-0.034h0.563c0.094,0,0.162,0.068,0.162,0.161v5.994C465.521,31.785,465.443,31.861,465.351,31.861
				z"/>
			<path fill="#3E3A39" d="M470.721,31.929c-1.268,0-2.232-0.783-2.232-2.631v-0.98c0-2.052,0.801-2.851,2.36-2.851
				c0.74,0,1.294,0.102,1.575,0.161c0.118,0.026,0.196,0.068,0.196,0.18v0.527c0,0.12-0.068,0.178-0.162,0.178
				c-0.008,0-0.026,0-0.034,0c-0.324-0.05-1.064-0.11-1.575-0.11c-0.861,0-1.176,0.383-1.202,1.55
				c0.272-0.052,0.725-0.094,1.184-0.094c1.108,0,2.086,0.477,2.086,1.873v0.084C472.917,31.077,472.125,31.929,470.721,31.929z
				 M471.759,29.733c0-0.801-0.545-1.014-1.166-1.014c-0.246,0-0.689,0.042-0.945,0.094v0.485c0,1.422,0.452,1.711,1.074,1.711
				c0.579,0,1.038-0.255,1.038-1.192V29.733z"/>
			<path fill="#3E3A39" d="M476.363,31.929c-0.631,0-1.15-0.092-1.635-0.212c-0.086-0.016-0.162-0.076-0.162-0.162v-0.527
				c0-0.094,0.068-0.154,0.152-0.154c0.01,0,0.01,0,0.018,0c0.673,0.068,1.218,0.12,1.627,0.12c0.689,0,0.954-0.306,0.954-0.903
				v-0.178c0-0.451-0.136-0.86-0.783-0.86h-1.508c-0.092,0-0.16-0.068-0.16-0.162v-0.537c0-0.093,0.068-0.161,0.16-0.161h1.508
				c0.647,0,0.783-0.384,0.783-0.835v-0.136c0-0.435-0.17-0.817-0.954-0.817c-0.605,0-0.877,0.042-1.627,0.12
				c-0.008,0-0.008,0-0.018,0c-0.084,0-0.152-0.06-0.152-0.154v-0.527c0-0.086,0.076-0.146,0.162-0.162
				c0.485-0.12,1.004-0.212,1.635-0.212c1.226,0,2.136,0.467,2.136,1.753v0.136c0,0.597-0.272,1.014-0.731,1.26
				c0.469,0.256,0.731,0.749,0.731,1.294v0.178C478.499,31.36,477.571,31.929,476.363,31.929z"/>
			<path fill="#3E3A39" d="M481.204,31.861h-0.757c-0.094,0-0.17-0.076-0.17-0.17v-0.962c0-0.094,0.076-0.162,0.17-0.162h0.757
				c0.094,0,0.17,0.068,0.17,0.162v0.962C481.374,31.785,481.298,31.861,481.204,31.861z"/>
			<path fill="#3E3A39" d="M485.861,31.819c-0.196,0.052-0.579,0.11-1.098,0.11c-1.108,0-1.941-0.681-1.941-2.068v-0.793
				c0-1.387,0.834-2.068,1.941-2.068c0.519,0,0.902,0.058,1.098,0.11c0.144,0.034,0.178,0.084,0.178,0.221v0.555
				c0,0.084-0.068,0.126-0.152,0.126c-0.01,0-0.018,0-0.026,0c-0.341-0.042-0.545-0.058-1.098-0.058
				c-0.401,0-0.817,0.229-0.817,1.114v0.793c0,0.886,0.417,1.114,0.817,1.114c0.553,0,0.757-0.016,1.098-0.058
				c0.008,0,0.016,0,0.026,0c0.084,0,0.152,0.042,0.152,0.127v0.555C486.039,31.734,486.005,31.785,485.861,31.819z"/>
			<path fill="#3E3A39" d="M489.375,31.929c-1.338,0-2.035-0.902-2.035-2.12V29.12c0-1.218,0.697-2.12,2.035-2.12
				c1.336,0,2.034,0.902,2.034,2.12v0.689C491.409,31.027,490.711,31.929,489.375,31.929z M490.285,29.12
				c0-0.699-0.315-1.15-0.91-1.15c-0.597,0-0.912,0.451-0.912,1.15v0.689c0,0.699,0.315,1.15,0.912,1.15
				c0.595,0,0.91-0.451,0.91-1.15V29.12z"/>
			<path fill="#3E3A39" d="M498.822,31.861h-0.783c-0.094,0-0.17-0.084-0.17-0.178v-2.895c0-0.655-0.136-0.825-0.613-0.825
				c-0.162,0-0.485,0.05-0.791,0.212c0.026,0.188,0.034,0.401,0.034,0.613v2.895c0,0.094-0.076,0.178-0.17,0.178h-0.783
				c-0.094,0-0.17-0.084-0.17-0.178v-2.895c0-0.655-0.11-0.825-0.587-0.825c-0.18,0-0.435,0.094-0.783,0.281v3.44
				c0,0.094-0.078,0.178-0.17,0.178h-0.783c-0.094,0-0.17-0.084-0.17-0.178v-4.454c0-0.092,0.076-0.17,0.17-0.17h0.74
				c0.094,0,0.17,0.078,0.17,0.17v0.18c0.358-0.23,0.715-0.409,1.218-0.409c0.485,0,0.801,0.144,0.996,0.383
				c0.435-0.238,0.817-0.383,1.406-0.383c1.158,0,1.413,0.791,1.413,1.787v2.895C498.993,31.776,498.916,31.861,498.822,31.861z"/>
		</g>
	</g>
	<g>
		<g>
			<path fill="#3E3A39" d="M442.103,19.744c0.165-0.237,0.324-0.471,0.478-0.703c0.154-0.231,0.309-0.466,0.463-0.702l-0.787,0.417
				l-0.895-1.822c-0.639,1.195-1.302,2.28-1.992,3.258l-0.741-0.525v2.44h-1.482V9.028h12.414v10.977
				c0,0.401-0.031,0.731-0.092,0.988c-0.062,0.257-0.178,0.461-0.347,0.61c-0.17,0.149-0.401,0.255-0.695,0.316
				c-0.294,0.062-0.667,0.093-1.12,0.093h-1.775l-0.294-1.405h1.652c0.247,0,0.448-0.013,0.602-0.039
				c0.154-0.025,0.273-0.077,0.356-0.154c0.082-0.077,0.139-0.183,0.169-0.316c0.031-0.134,0.046-0.309,0.046-0.525v-9.125h-9.433
				v8.415c0.36-0.514,0.707-1.049,1.042-1.606c0.334-0.555,0.656-1.137,0.965-1.744c-0.34-0.669-0.675-1.307-1.005-1.915
				c-0.328-0.607-0.611-1.127-0.848-1.559l1.112-0.541l1.436,2.61c0.216-0.483,0.418-0.97,0.61-1.459
				c0.191-0.489,0.373-0.98,0.548-1.475l1.22,0.432c-0.052,0.155-0.105,0.309-0.162,0.464c-0.057,0.154-0.116,0.308-0.178,0.463
				l0.788-0.432c0.155,0.277,0.332,0.592,0.533,0.941c0.2,0.35,0.41,0.721,0.625,1.112c0.206-0.463,0.399-0.928,0.579-1.397
				c0.18-0.468,0.348-0.934,0.502-1.397l1.204,0.432c-0.412,1.287-0.911,2.553-1.498,3.798c0.34,0.617,0.669,1.222,0.988,1.814
				c0.319,0.592,0.602,1.13,0.849,1.614l-1.173,0.602c-0.186-0.36-0.394-0.766-0.625-1.22c-0.232-0.452-0.476-0.926-0.734-1.421
				c-0.319,0.608-0.661,1.203-1.027,1.784c-0.365,0.581-0.754,1.165-1.166,1.752L442.103,19.744z M442.088,15.529
				c0.237,0.432,0.457,0.854,0.663,1.266c0.206,0.412,0.397,0.783,0.572,1.112c0.494-0.792,0.937-1.575,1.327-2.347
				c-0.268-0.495-0.525-0.967-0.772-1.421c-0.246-0.453-0.468-0.849-0.664-1.189c-0.174,0.443-0.354,0.877-0.54,1.305
				C442.489,14.682,442.294,15.106,442.088,15.529z"/>
			<path fill="#3E3A39" d="M452.803,17.242c0.71-0.422,1.338-0.888,1.884-1.397c0.545-0.509,1.014-1.057,1.405-1.645h-1.204V8.874
				h10.067v5.327h-8.214l0.818,0.355c-0.103,0.144-0.204,0.283-0.301,0.417c-0.098,0.134-0.199,0.268-0.302,0.401h8.879
				c-0.062,0.67-0.118,1.297-0.17,1.884c-0.02,0.247-0.045,0.5-0.069,0.757c-0.026,0.258-0.049,0.502-0.07,0.734
				c-0.021,0.231-0.039,0.439-0.054,0.625c-0.015,0.185-0.028,0.329-0.038,0.432c-0.052,0.381-0.127,0.695-0.224,0.941
				c-0.098,0.247-0.242,0.445-0.432,0.594c-0.192,0.149-0.433,0.252-0.726,0.309c-0.294,0.057-0.657,0.085-1.089,0.085h-2.084
				l-0.278-1.344h1.761c0.309,0,0.566-0.015,0.771-0.046c0.206-0.031,0.371-0.087,0.495-0.169c0.123-0.083,0.219-0.198,0.285-0.348
				c0.067-0.148,0.116-0.341,0.146-0.579l0.294-2.64h-1.699c-0.206,0.617-0.455,1.191-0.749,1.721
				c-0.294,0.53-0.649,1.032-1.066,1.506c-0.417,0.474-0.906,0.924-1.467,1.351c-0.561,0.427-1.212,0.842-1.953,1.243l-0.942-1.096
				c0.68-0.361,1.268-0.713,1.768-1.057c0.5-0.345,0.932-0.703,1.297-1.074c0.365-0.371,0.676-0.766,0.934-1.189
				c0.257-0.422,0.483-0.89,0.68-1.405h-1.791c-0.278,0.504-0.597,0.972-0.958,1.405c-0.36,0.432-0.777,0.842-1.25,1.228
				c-0.474,0.386-1.014,0.754-1.621,1.104c-0.607,0.35-1.297,0.7-2.069,1.05l-0.772-1.173c0.678-0.268,1.286-0.54,1.821-0.818
				c0.535-0.278,1.009-0.568,1.421-0.873c0.412-0.303,0.77-0.615,1.073-0.934c0.304-0.319,0.564-0.649,0.779-0.988h-1.975
				c-0.31,0.298-0.639,0.584-0.989,0.856c-0.349,0.273-0.73,0.548-1.142,0.826L452.803,17.242z M456.323,10.974h7.211v-0.942h-7.211
				V10.974z M463.534,13.027v-0.926h-7.211v0.926H463.534z"/>
			<path fill="#3E3A39" d="M468.954,20.747c0.329-0.463,0.643-0.985,0.942-1.567c0.298-0.581,0.55-1.156,0.757-1.722l1.158,0.401
				c-0.113,0.277-0.24,0.571-0.379,0.88s-0.286,0.618-0.44,0.926c-0.154,0.309-0.314,0.608-0.478,0.896
				c-0.165,0.288-0.324,0.556-0.478,0.803L468.954,20.747z M471.038,10.958h-1.421v-1.25h2.902l-0.525-1.328l1.312-0.386
				l0.664,1.714h2.579v1.25h-1.39l0.494,0.154c-0.113,0.289-0.247,0.618-0.401,0.989c-0.154,0.371-0.308,0.72-0.463,1.05h2.054v1.25
				h-3.011v1.498h2.81v1.266h-2.81v3.351c0,0.288-0.026,0.527-0.077,0.718c-0.053,0.191-0.142,0.345-0.272,0.463
				c-0.127,0.118-0.305,0.201-0.532,0.247c-0.226,0.046-0.514,0.07-0.864,0.07h-0.864l-0.278-1.359h0.602
				c0.206,0,0.368-0.01,0.487-0.031c0.118-0.02,0.208-0.062,0.27-0.123c0.062-0.062,0.103-0.147,0.123-0.255
				c0.02-0.108,0.03-0.249,0.03-0.424v-2.656h-3.041v-1.266h3.041v-1.498h-3.226v-1.25h2.084c-0.123-0.309-0.265-0.646-0.424-1.012
				c-0.16-0.365-0.311-0.681-0.456-0.95L471.038,10.958z M473.401,13.151c0.154-0.289,0.324-0.638,0.509-1.05
				c0.185-0.412,0.345-0.793,0.478-1.143h-2.733c0.155,0.298,0.314,0.625,0.478,0.98c0.165,0.355,0.309,0.682,0.432,0.98
				l-0.555,0.232H473.401z M475.006,17.49c0.122,0.154,0.259,0.332,0.409,0.533c0.149,0.2,0.296,0.401,0.44,0.602
				c0.144,0.201,0.285,0.399,0.425,0.594c0.138,0.196,0.255,0.366,0.347,0.51l-1.004,0.741c-0.092-0.155-0.206-0.332-0.339-0.533
				c-0.135-0.201-0.276-0.407-0.425-0.618c-0.149-0.211-0.297-0.417-0.44-0.618c-0.144-0.2-0.272-0.378-0.386-0.532L475.006,17.49z
				 M475.469,21.736c0.381-0.525,0.693-1.027,0.934-1.506c0.242-0.478,0.432-0.988,0.571-1.529c0.14-0.54,0.232-1.144,0.278-1.814
				c0.046-0.669,0.07-1.456,0.07-2.362V9.646c0.453-0.041,0.916-0.092,1.389-0.154c0.474-0.062,0.94-0.136,1.398-0.224
				c0.457-0.088,0.895-0.186,1.312-0.294c0.417-0.108,0.795-0.224,1.134-0.347l0.464,1.374c-0.278,0.103-0.59,0.201-0.934,0.294
				c-0.345,0.092-0.71,0.18-1.096,0.263c-0.386,0.082-0.775,0.157-1.166,0.224c-0.391,0.067-0.772,0.116-1.143,0.147v2.347h4.664
				v1.374h-1.56v7.489h-1.374v-7.489h-1.73v0.186c0,0.916-0.023,1.717-0.069,2.401c-0.046,0.684-0.137,1.312-0.27,1.884
				c-0.135,0.571-0.32,1.114-0.556,1.628c-0.237,0.515-0.546,1.061-0.926,1.637L475.469,21.736z"/>
			<path fill="#3E3A39" d="M487.851,11.128v11.025h-1.435V11.128H487.851z M487.512,8.241c0.164,0.134,0.355,0.293,0.571,0.478
				c0.217,0.185,0.44,0.381,0.671,0.586c0.232,0.207,0.458,0.407,0.68,0.602c0.221,0.195,0.414,0.371,0.579,0.525l-1.081,1.112
				c-0.154-0.154-0.337-0.332-0.548-0.533c-0.211-0.2-0.43-0.409-0.656-0.625c-0.226-0.216-0.448-0.422-0.664-0.617
				c-0.216-0.195-0.401-0.36-0.556-0.495L487.512,8.241z M488.3,18.894c0.102,0,0.27-0.002,0.501-0.007
				c0.232-0.005,0.513-0.018,0.842-0.039v-5.852h-0.988v-1.235h8.044v1.235h-1.096v5.559l1.405-0.078v1.22l-1.405,0.062v1.575
				h-1.344v-1.498c-0.577,0.031-1.176,0.062-1.799,0.092c-0.623,0.031-1.207,0.062-1.752,0.093c-0.546,0.031-1.027,0.06-1.443,0.085
				c-0.417,0.026-0.708,0.044-0.873,0.054L488.3,18.894z M498.968,9.059v11.194c0,0.371-0.031,0.68-0.092,0.926
				c-0.062,0.247-0.169,0.44-0.324,0.579c-0.154,0.139-0.363,0.237-0.626,0.294c-0.261,0.057-0.594,0.085-0.995,0.085h-0.895
				l-0.232-1.328h0.649c0.442,0,0.736-0.056,0.88-0.169c0.144-0.114,0.217-0.35,0.217-0.71v-9.481h-7.226V9.059H498.968z
				 M490.986,14.123h3.273v-1.127h-3.273V14.123z M490.986,16.393h3.273v-1.143h-3.273V16.393z M494.259,18.632V17.52h-3.273v1.266
				L494.259,18.632z"/>
		</g>
	</g>
	<g>
		<g>
			<path fill="#E10000" d="M399.283,0.165c-4.344,0-7.1,0.017-9.707,2.622c-2.611,2.609-2.625,5.385-2.625,9.71v15.335
				c0,4.348,0.014,7.105,2.616,9.711c2.615,2.611,5.382,2.628,9.716,2.628h15.335c4.345,0,7.104-0.017,9.706-2.622
				c2.61-2.613,2.625-5.376,2.625-9.717V12.497c0-4.347-0.015-7.1-2.618-9.703c-2.61-2.614-5.381-2.628-9.713-2.628H399.283z"/>
			<g>
				<g>
					<path fill="#FFFFFF" d="M397.026,23.317c0.049-0.161,0.067-0.293,0.052-0.401c-0.013-0.109-0.036-0.246-0.071-0.405
						c0.015-0.082,0.015-0.165,0-0.239c-0.031-0.072-0.057-0.154-0.07-0.253c-0.035-0.183-0.114-0.371-0.254-0.568
						c-0.117-0.161-0.275-0.235-0.467-0.235c-0.025-0.007-0.049-0.007-0.078-0.007c-0.212,0-0.325,0.046-0.349,0.131
						c-0.035,0.075-0.079,0.132-0.144,0.183c-0.049,0.011-0.085,0.128-0.105,0.349c0.034,0.196,0.057,0.332,0.057,0.417
						c0,0.111,0.065,0.311,0.192,0.603c0.036,0.196,0.178,0.392,0.427,0.585c0.192,0.196,0.35,0.275,0.467,0.221
						C396.807,23.663,396.922,23.53,397.026,23.317z M404.446,22.237c-0.157-0.092-0.31-0.135-0.464-0.135
						c-0.092,0-0.184,0.014-0.263,0.043c-0.091,0.056-0.229,0.079-0.435,0.092c-0.213,0.013-0.371,0.032-0.47,0.053
						c-0.082,0.04-0.193,0.068-0.337,0.092c-0.191,0.015-0.353,0.104-0.483,0.275c-0.083,0.157-0.133,0.311-0.148,0.443
						c0.015,0.193,0.105,0.345,0.276,0.449c0.316,0.089,0.583,0.096,0.801,0.021c0.071-0.04,0.154-0.054,0.25-0.054
						c0.091,0,0.161-0.006,0.239-0.017c0.006-0.015,0.079-0.009,0.193,0.017c0.406,0.054,0.719,0,0.948-0.151
						c0.185-0.102,0.268-0.298,0.253-0.581C404.77,22.529,404.653,22.347,404.446,22.237z M394.697,22.289
						c-0.075-0.154-0.194-0.264-0.358-0.328c-0.129-0.039-0.227-0.063-0.298-0.063c-0.072,0-0.115,0.024-0.128,0.063
						c-0.051,0.05-0.112,0.089-0.185,0.111c-0.045,0-0.108,0.1-0.18,0.293c-0.049,0.42-0.088,0.706-0.128,0.88
						c-0.036,0.219,0,0.656,0.093,1.309c-0.013,0.187,0.065,0.4,0.237,0.643c0.113,0.227,0.235,0.341,0.354,0.328
						c0.125,0,0.259-0.085,0.417-0.256c0.078-0.122,0.135-0.235,0.157-0.347c0.013-0.085,0.028-0.213,0.034-0.381
						c0.121-0.272,0.172-0.524,0.15-0.77c-0.075-0.263-0.099-0.555-0.092-0.877C394.782,22.714,394.761,22.512,394.697,22.289z
						 M394.118,21.105c0.157-0.049,0.322-0.073,0.49-0.073c0.429-0.036,0.758-0.196,0.988-0.475
						c0.153-0.196,0.341-0.364,0.571-0.509c0.121-0.086,0.212-0.167,0.269-0.242c0.108-0.043,0.207-0.118,0.301-0.214
						c0.148-0.186,0.224-0.41,0.239-0.675c0.011-0.125-0.015-0.275-0.075-0.443c-0.05-0.125-0.079-0.309-0.109-0.559
						c-0.006-0.2-0.063-0.426-0.164-0.682c-0.045-0.154-0.111-0.26-0.193-0.309c-0.082-0.086-0.148-0.187-0.198-0.311
						c-0.048-0.145-0.13-0.242-0.25-0.292c-0.051-0.014-0.092-0.053-0.127-0.128c-0.013-0.011-0.028-0.023-0.037-0.036
						c-0.012-0.181-0.029-0.338-0.052-0.456c-0.01-0.014-0.019-0.036-0.019-0.072c0.013-0.075,0.035-0.142,0.071-0.204
						c0.01-0.105,0.072-0.213,0.178-0.306c0.165-0.161,0.384-0.289,0.68-0.389c0.125-0.011,0.229-0.125,0.324-0.342
						c0.051-0.147,0.051-0.292,0-0.443c-0.07-0.157-0.079-0.282-0.017-0.384c0.049-0.068,0.011-0.199-0.125-0.381
						c-0.216-0.29-0.486-0.446-0.827-0.472c-0.115,0-0.213-0.016-0.285-0.056c-0.109-0.046-0.202-0.043-0.286,0.02
						c-0.075,0.046-0.151,0.079-0.236,0.086c-0.153,0-0.256,0.065-0.318,0.182c-0.088,0.195-0.082,0.325,0.019,0.388
						c0.227,0.118,0.341,0.232,0.357,0.328c0.034,0.086,0.006,0.174-0.071,0.272c-0.05,0.053-0.101,0.139-0.144,0.279
						c-0.049,0.181-0.135,0.309-0.249,0.381c-0.049,0.036-0.092,0.096-0.128,0.181c-0.049,0.161-0.139,0.242-0.27,0.256
						c-0.083,0.009-0.173,0.065-0.272,0.164c-0.108,0.122-0.242,0.144-0.406,0.055c-0.04-0.036-0.122-0.058-0.253-0.075
						c-0.139-0.01-0.233-0.065-0.27-0.16c-0.012-0.049-0.059-0.088-0.148-0.111c-0.079-0.049-0.19-0.178-0.318-0.381
						c-0.075-0.161-0.025-0.403,0.128-0.735c0.046-0.289,0.111-0.466,0.19-0.532c0.052-0.006,0.106-0.092,0.168-0.249
						c0.045-0.148,0.11-0.26,0.196-0.328c0.07-0.042,0.122-0.125,0.142-0.26c0.011-0.071,0.065-0.167,0.165-0.289
						c0.071-0.086,0.142-0.122,0.212-0.115c0.051,0,0.105-0.025,0.18-0.085c0.087-0.079,0.178-0.099,0.286-0.079
						c0.12,0.014,0.227-0.017,0.323-0.088c0.052-0.046,0.148-0.066,0.288-0.054c0.122,0.011,0.279-0.061,0.466-0.221
						c0.085-0.047,0.118-0.178,0.105-0.399c-0.012-0.235-0.163-0.454-0.448-0.661c-0.246-0.145-0.47-0.195-0.663-0.145
						c-0.07,0.013-0.178-0.003-0.321-0.053c-0.07-0.019-0.135-0.025-0.198-0.025c-0.094,0-0.177,0.017-0.25,0.059
						c-0.072,0.055-0.164,0.075-0.268,0.075c-0.103-0.011-0.256,0.161-0.446,0.511c-0.072,0.145-0.142,0.231-0.213,0.257
						c-0.089,0.049-0.151,0.124-0.187,0.235c-0.006,0.089-0.053,0.156-0.128,0.204c-0.079,0.071-0.142,0.156-0.191,0.253
						c-0.036,0.125-0.079,0.2-0.125,0.239c-0.075,0.073-0.219,0.328-0.446,0.762c-0.193,0.386-0.289,0.633-0.289,0.748
						c0.013,0.094-0.026,0.173-0.105,0.239c-0.075,0.049-0.11,0.25-0.092,0.607c0.006,0.111,0.056,0.204,0.141,0.292
						c0.088,0.086,0.122,0.165,0.105,0.236c-0.011,0.11,0.032,0.188,0.128,0.239c0.075,0.034,0.131,0.086,0.178,0.146
						c0.051,0.118,0.176,0.216,0.38,0.289c0.082,0.015,0.164,0.075,0.23,0.187c0.072,0.081,0.115,0.177,0.122,0.269
						c0.089,0.193,0.086,0.401-0.013,0.603c-0.151,0.233-0.24,0.436-0.25,0.603c-0.016,0.182-0.075,0.307-0.2,0.362
						c-0.178,0.076-0.358,0.325-0.534,0.753c-0.122,0.228-0.165,0.435-0.125,0.62c0.049,0.182,0.068,0.339,0.049,0.474
						c-0.01,0.193,0.125,0.531,0.414,1.006c0.325,0.263,0.66,0.384,1.01,0.364c0.207-0.015,0.435,0.049,0.676,0.182
						C393.727,21.124,393.919,21.152,394.118,21.105z M392.993,19.444c-0.18-0.196-0.293-0.407-0.344-0.624
						c-0.006-0.118,0.062-0.25,0.222-0.397c0.113-0.114,0.191-0.276,0.207-0.482c0.014-0.139,0.103-0.263,0.257-0.359
						c0.229-0.15,0.384-0.335,0.485-0.567c0.041-0.161,0.157-0.253,0.32-0.276c0.189-0.014,0.336-0.06,0.431-0.142
						c0-0.019,0.004-0.022,0.014-0.022c0.183,0.049,0.341,0.111,0.469,0.182c0.036,0.043,0.059,0.071,0.071,0.109
						c0.013,0.036,0.042,0.075,0.092,0.133c0.078,0.083,0.148,0.191,0.2,0.32c0.028,0.112,0.063,0.186,0.086,0.222
						c0.085,0.086,0.141,0.234,0.157,0.457c0.013,0.231-0.009,0.424-0.065,0.588c-0.05,0.118-0.076,0.285-0.076,0.511v0.031
						c-0.144,0.197-0.318,0.344-0.538,0.443c-0.213,0.082-0.385,0.114-0.521,0.093c-0.082-0.039-0.207-0.028-0.378,0.036
						c-0.028,0.011-0.056,0.019-0.085,0.019c-0.063,0-0.136-0.028-0.213-0.079c-0.075-0.042-0.2-0.078-0.375-0.085
						C393.262,19.555,393.127,19.519,392.993,19.444z M392.521,21.78c-0.105-0.15-0.227-0.225-0.371-0.225
						c-0.046,0-0.096,0.012-0.142,0.025c-0.219,0.072-0.372,0.279-0.446,0.62c-0.054,0.147-0.148,0.296-0.289,0.436
						c-0.256,0.306-0.378,0.656-0.378,1.047c-0.036,0.269-0.101,0.496-0.196,0.689c-0.075,0.26-0.083,0.509-0.02,0.752
						c0.049,0.213,0.174,0.354,0.377,0.418c0.217,0.05,0.391,0.025,0.538-0.071c0.143-0.075,0.247-0.233,0.306-0.475
						c0.072-0.233,0.149-0.443,0.23-0.624c0.148-0.157,0.263-0.338,0.341-0.545c0.088-0.197,0.099-0.41,0.036-0.643
						c-0.011-0.229,0-0.457,0.013-0.673C392.636,22.204,392.636,21.961,392.521,21.78z M406.979,23.132
						c-0.014-0.436-0.135-1.01-0.364-1.716c-0.114-0.272-0.142-0.685-0.071-1.241c0.051-0.328,0.032-0.728-0.053-1.188
						c-0.045-0.196-0.045-0.386,0-0.564c0.053-0.221,0.053-0.41,0.018-0.571c-0.044-0.191-0.057-0.345-0.018-0.452
						c0.086-0.2,0.125-0.446,0.125-0.753c-0.036-0.449-0.013-0.88,0.057-1.298c0.036-0.156,0.036-0.29,0-0.395
						c-0.034-0.111-0.028-0.239,0.036-0.39c0.036-0.046,0.062-0.139,0.075-0.27c0.011-0.121,0.054-0.232,0.141-0.328
						c0.085-0.072,0.141-0.187,0.177-0.347c0.05-0.23,0.05-0.453,0-0.663c-0.104-0.371-0.307-0.645-0.61-0.82
						c-0.178-0.082-0.295-0.188-0.357-0.328c-0.046-0.082-0.147-0.167-0.303-0.253c-0.125-0.046-0.278-0.065-0.466-0.057
						c-0.141,0.015-0.279-0.022-0.419-0.107c-0.077-0.075-0.184-0.111-0.315-0.111c-0.112,0.015-0.247,0.008-0.418-0.017
						c-0.258-0.049-0.577-0.043-0.948,0.017c-0.23,0.046-0.45,0.046-0.679-0.017c-0.082-0.029-0.165-0.043-0.257-0.043
						c-0.153,0-0.318,0.043-0.498,0.114c-0.109,0.05-0.194,0.067-0.266,0.057c-0.121-0.04-0.312,0.007-0.555,0.125
						c-0.111,0.039-0.258,0.032-0.45-0.018c-0.264-0.045-0.534-0.022-0.813,0.074c-0.139,0.015-0.242,0.019-0.319,0.019
						c-0.117-0.01-0.199-0.01-0.252,0c-0.01,0-0.01,0.007,0,0.018c-0.213-0.156-0.457-0.165-0.732-0.018
						c-0.18,0.086-0.373,0.375-0.573,0.864c-0.221,0.41-0.292,0.866-0.237,1.365c0.016,0.486,0.128,0.892,0.345,1.205
						c0.157,0.219,0.25,0.525,0.285,0.915c0.049,0.67,0.063,1.116,0.037,1.346c-0.037,0.258-0.029,0.535,0.016,0.847
						c0.016,0.178-0.01,0.36-0.075,0.542c-0.006,0.085-0.024,0.232-0.05,0.443c0.086,0.263,0.072,0.538-0.036,0.82
						c-0.191,0.449-0.285,0.916-0.285,1.405c0,0.122-0.036,0.26-0.109,0.421c-0.047,0.219-0.128,0.472-0.233,0.75
						c-0.049,0.049-0.085,0.139-0.108,0.273c0,0.157-0.099,0.357-0.306,0.6c-0.114,0.203-0.221,0.349-0.302,0.443
						c-0.048,0.125-0.097,0.26-0.148,0.42c-0.007,0.157,0,0.313,0.036,0.474c0.049,0.161,0.15,0.297,0.306,0.422
						c0.183,0.083,0.35,0.122,0.508,0.106c0.171-0.036,0.374-0.145,0.591-0.328c0.135-0.157,0.242-0.328,0.299-0.509
						c0.051-0.268,0.163-0.624,0.341-1.08c0.052-0.153,0.073-0.278,0.073-0.363c0-0.148,0.029-0.286,0.094-0.423
						c0.042-0.116,0.07-0.238,0.07-0.345c-0.014-0.111,0-0.207,0.036-0.292c0.007-0.111,0.019-0.221,0.032-0.328
						c-0.013-0.147,0.026-0.315,0.112-0.509c0.049-0.235,0.066-0.432,0.066-0.585c-0.01-0.036-0.018-0.067-0.018-0.092
						c0.072,0.045,0.165,0.107,0.272,0.164c0.086,0.01,0.178,0.017,0.285,0.017c0.036,0.032,0.071,0.094,0.107,0.165
						c0.035,0.047,0.064,0.114,0.092,0.203v0.148c-0.006,0.107-0.028,0.235-0.058,0.38c-0.035,0.304,0,0.706,0.093,1.211
						c0.122,0.374,0.3,0.601,0.557,0.67c0.106,0.036,0.197,0.068,0.263,0.096c0.075,0.011,0.157,0.011,0.256,0
						c0.157-0.079,0.265-0.2,0.337-0.381c0.084-0.187,0.049-0.325-0.109-0.427c-0.036-0.043-0.065-0.108-0.085-0.183
						c-0.049-0.106-0.075-0.236-0.075-0.381v-0.384c-0.01-0.087-0.004-0.193,0.018-0.328c0.107-0.304,0.143-0.547,0.107-0.735
						l-0.02-0.019c0.184-0.118,0.52-0.264,1.011-0.431h0.015c0.189,0.046,0.398,0.039,0.606-0.019
						c0.289-0.049,0.568-0.04,0.835,0.036c0.362,0.125,0.69,0.128,0.984,0.015c0.241-0.118,0.362-0.29,0.355-0.508
						c0-0.256-0.102-0.453-0.302-0.584c-0.183-0.122-0.368-0.19-0.558-0.2c-0.181,0.01-0.381,0.01-0.61,0
						c-0.221-0.043-0.402-0.049-0.556-0.043c-0.014-0.006-0.025-0.02-0.04-0.036c-0.118-0.082-0.224-0.185-0.318-0.302
						c0-0.043,0-0.065,0.019-0.075c0.031-0.085,0.045-0.178,0.031-0.275c-0.014-0.156-0.022-0.302-0.022-0.434
						c0-0.023,0-0.037-0.009-0.062c0.045-0.05,0.102-0.089,0.174-0.106c0.053-0.04,0.139-0.072,0.272-0.094
						c0.122,0,0.256-0.017,0.414-0.056c0.371-0.072,0.733-0.054,1.113,0.056c0.036,0.012,0.06,0.022,0.089,0.037
						c0.066,0.049,0.174,0.147,0.318,0.292c0.084,0.051,0.184,0.133,0.289,0.261c0.01,0.214,0.039,0.395,0.067,0.542
						c0.041,0.267,0.029,0.525-0.028,0.771c-0.055,0.181-0.066,0.427-0.039,0.748c0.01,0.263,0.01,0.463,0,0.598
						c-0.016,0.124-0.016,0.258,0,0.403c0.081,0.525,0.096,1.059,0.039,1.605c-0.039,0.182-0.015,0.459,0.086,0.824
						c0.036,0.15,0.036,0.285,0,0.422c-0.036,0.109-0.036,0.21,0,0.31c0.049,0.11,0.063,0.238,0.052,0.384
						c-0.01,0.153,0.063,0.363,0.217,0.622c0.144,0.195,0.315,0.295,0.521,0.309c0.224,0,0.427-0.079,0.607-0.236
						c0.049-0.053,0.096-0.142,0.142-0.277c0.014-0.086,0.049-0.193,0.108-0.328c0.049-0.182,0.043-0.429-0.015-0.727
						C407.048,23.792,406.998,23.484,406.979,23.132z M401.529,18.802c-0.085,0.071-0.213,0.161-0.381,0.253h-0.033
						c-0.12-0.034-0.245-0.034-0.377,0c-0.144,0.044-0.281,0.044-0.414,0c-0.121-0.007-0.275,0.025-0.462,0.094
						c-0.229,0.049-0.408,0.156-0.542,0.312c-0.009-0.195,0.02-0.37,0.092-0.526c0.041-0.147,0.078-0.347,0.092-0.59
						c0.036-0.082,0.079-0.161,0.139-0.213c0.051-0.092,0.139-0.175,0.267-0.26c0.015-0.015,0.051-0.032,0.116-0.054
						c0.114,0,0.25-0.01,0.391-0.04c0.115-0.01,0.279-0.067,0.482-0.181h0.017c0.183,0.039,0.336,0.099,0.465,0.181
						c0.049,0.015,0.093,0.043,0.128,0.094v0.224v0.233c0.036,0.109,0.046,0.23,0.036,0.371
						C401.529,18.728,401.529,18.771,401.529,18.802z M405.489,15.06c-0.047,0.193-0.065,0.426-0.058,0.689v0.259
						c-0.043,0.075-0.099,0.147-0.171,0.222c-0.036,0.006-0.072,0.036-0.092,0.071c-0.016-0.008-0.032-0.018-0.058-0.018
						c-0.178,0.013-0.371,0.01-0.592-0.018c-0.229-0.036-0.42-0.051-0.571-0.036c-0.013-0.039-0.02-0.058-0.039-0.058
						c-0.032-0.049-0.075-0.088-0.102-0.128c0.013-0.07,0.02-0.138,0.035-0.199c0.007-0.307,0.086-0.535,0.214-0.691
						c0.117-0.147,0.213-0.307,0.286-0.475c0.049-0.161,0.088-0.338,0.125-0.534c0.014-0.25-0.025-0.482-0.125-0.688
						c-0.085-0.161-0.19-0.26-0.321-0.296c-0.144-0.032-0.338,0.046-0.579,0.242c-0.213,0.157-0.317,0.378-0.317,0.657
						c-0.014,0.147-0.069,0.328-0.164,0.545c-0.01,0.082-0.01,0.2,0,0.35c0.036,0.188,0.054,0.345,0.054,0.452
						c-0.034,0.161-0.07,0.279-0.128,0.368c-0.043,0.042-0.071,0.112-0.086,0.199c-0.049,0.049-0.093,0.096-0.122,0.145
						c-0.049,0.049-0.135,0.111-0.256,0.182h-0.013c-0.302-0.008-0.514,0.004-0.65,0.054c-0.122,0.089-0.278,0.122-0.466,0.092
						c-0.154-0.036-0.311-0.032-0.469,0.019c-0.194,0.034-0.367,0.034-0.535,0c-0.121-0.016-0.256,0.01-0.414,0.053
						c-0.007-0.007-0.029-0.026-0.053-0.053c-0.153-0.111-0.339-0.258-0.557-0.44l-0.036-0.019v-0.034
						c-0.142-0.233-0.203-0.54-0.178-0.915c-0.013-0.161-0.045-0.43-0.102-0.82c-0.015-0.161,0.077-0.441,0.281-0.863
						c0.011-0.046,0.026-0.082,0.036-0.103c0.154-0.125,0.439-0.272,0.846-0.44c0.014-0.013,0.04-0.027,0.089-0.042
						c0.082-0.006,0.178-0.006,0.289,0c0.007,0.006,0.022,0.006,0.036,0.006c0.105,0,0.264-0.045,0.463-0.128
						c0.478-0.23,0.975-0.289,1.49-0.164c0.393,0.082,0.71,0.085,0.948,0.019c0.444-0.161,0.993,0.049,1.65,0.634
						c0.262,0.302,0.414,0.627,0.449,0.967C405.538,14.548,405.525,14.857,405.489,15.06z M401.709,14.604
						c-0.036-0.079-0.072-0.154-0.095-0.236c-0.033-0.188-0.114-0.366-0.234-0.549c-0.118-0.121-0.266-0.184-0.446-0.199
						c-0.026-0.003-0.053-0.003-0.082-0.003c-0.196,0-0.299,0.045-0.311,0.125c-0.036,0.078-0.085,0.136-0.145,0.17
						c-0.043,0.009-0.079,0.118-0.093,0.328c0.039,0.193,0.058,0.324,0.058,0.4c0.014,0.111,0.082,0.308,0.2,0.585
						c0.033,0.182,0.178,0.361,0.427,0.525c0.178,0.19,0.321,0.256,0.43,0.207c0.121-0.036,0.22-0.16,0.305-0.367
						c0.05-0.157,0.065-0.286,0.057-0.381c-0.014-0.086-0.043-0.214-0.07-0.381C401.718,14.736,401.718,14.666,401.709,14.604z
						 M414.94,14.194c0.47-0.114,0.851-0.135,1.139-0.066c0.278,0.113,0.581,0.102,0.906-0.019c0.272-0.079,0.586-0.075,0.931,0.019
						c0.181,0.079,0.375,0.07,0.578-0.019c0.147-0.079,0.238-0.239,0.289-0.474c-0.014-0.246-0.121-0.443-0.326-0.59
						c-0.202-0.113-0.456-0.131-0.757-0.049c-0.249,0.065-0.534,0.053-0.864-0.04c-0.199-0.036-0.392-0.053-0.592-0.053
						c-0.221,0-0.45,0.023-0.677,0.075c-0.387,0.113-0.692,0.131-0.932,0.049c-0.246-0.079-0.446-0.046-0.591,0.099
						c-0.147,0.147-0.233,0.325-0.253,0.525c-0.012,0.214,0.07,0.397,0.253,0.542C414.289,14.308,414.589,14.308,414.94,14.194z
						 M409.729,19.782c0.014,0.072,0.131,0.147,0.354,0.217c0.283,0.079,0.562,0.065,0.833-0.034
						c0.079-0.036,0.185-0.048,0.316-0.036c0.118,0.015,0.279-0.032,0.493-0.131c0.203-0.139,0.446-0.212,0.71-0.225
						c0.317-0.01,0.556-0.079,0.714-0.199c0.184-0.115,0.364-0.214,0.557-0.307c0.25-0.079,0.47-0.219,0.663-0.425
						c0.112-0.106,0.246-0.195,0.406-0.25c0.135-0.046,0.234-0.156,0.316-0.324c0.079-0.11,0.168-0.202,0.275-0.281
						c0.2-0.151,0.358-0.304,0.457-0.465c0.099-0.174,0.178-0.367,0.236-0.574c0.178-0.042,0.348-0.031,0.502,0.032
						c0.217,0.108,0.447,0.092,0.696-0.032c0.213-0.067,0.427-0.053,0.627,0.032c0.213,0.072,0.446,0.062,0.692-0.032
						c0.214-0.042,0.479-0.053,0.778-0.031c0.443,0.047,0.798-0.011,1.066-0.172c0.388-0.146,0.661-0.346,0.83-0.605
						c0.215-0.216,0.329-0.564,0.336-1.031v-1.017c0-0.318-0.043-0.549-0.135-0.696c-0.069-0.147-0.118-0.318-0.147-0.525
						c0.011-0.42-0.063-0.706-0.211-0.863c-0.105-0.099-0.17-0.217-0.181-0.355c-0.011-0.137-0.153-0.289-0.439-0.453
						c-0.25-0.204-0.493-0.311-0.729-0.324c-0.213,0.014-0.377-0.026-0.492-0.101c-0.448-0.213-0.968-0.285-1.553-0.206
						c-0.387,0.045-0.75,0.022-1.102-0.067c-0.214-0.032-0.493-0.051-0.83-0.051c-0.086,0-0.174,0-0.269,0
						c-0.367,0-0.702,0.062-0.998,0.167c-0.217,0.049-0.419,0.08-0.61,0.086c-0.317,0.015-0.577,0.108-0.794,0.294
						c-0.18,0.128-0.269,0.324-0.253,0.578c0,0.242,0.164,0.414,0.49,0.502c0.383,0.072,0.779,0.007,1.185-0.187
						c0.486-0.237,1.013-0.298,1.569-0.187c0.422,0.046,0.941,0.059,1.576,0.053c0.913,0.043,1.427,0.139,1.54,0.286
						c0.075,0.068,0.18,0.125,0.304,0.167c0.079,0.047,0.14,0.139,0.181,0.272c0.023,0.067,0.087,0.184,0.226,0.355
						c0.046,0.136,0.074,0.268,0.089,0.393c0,0.177,0.036,0.381,0.113,0.607c0.101,0.249-0.139,1.389-0.293,1.504
						c-0.177,0.218-0.43,0.3-0.755,0.256c-0.384-0.011-0.727,0.025-1.034,0.118c-0.299,0.114-0.653,0.121-1.049,0.036
						c-0.617-0.145-1.254-0.128-1.911,0.065c-0.506,0.145-0.967,0.161-1.388,0.036c-0.281-0.083-0.488-0.236-0.623-0.475
						c-0.115-0.151-0.208-0.401-0.273-0.762c-0.042-0.282-0.023-0.692,0.052-1.234c0.042-0.453,0.028-0.778-0.052-0.981
						c-0.042-0.167-0.118-0.297-0.221-0.389c-0.096-0.043-0.213-0.082-0.35-0.099c-0.112,0.01-0.221,0.056-0.328,0.131
						c-0.113,0.082-0.203,0.207-0.285,0.375c-0.105,0.239-0.162,0.506-0.149,0.813c0.007,0.145,0.004,0.285-0.022,0.424
						c-0.043,0.199-0.039,0.403,0.022,0.607c0.044,0.341,0.072,0.774,0.086,1.306c-0.036,0.349,0.032,0.574,0.199,0.673
						c0.214,0.151,0.339,0.311,0.375,0.489c0.079,0.184,0.31,0.324,0.709,0.427c0.371,0.11,0.643,0.133,0.813,0.065
						c0.25-0.112,0.513-0.125,0.796-0.032c-0.067,0.078-0.139,0.186-0.204,0.324c-0.171,0.199-0.384,0.364-0.645,0.492
						c-0.182,0.025-0.348,0.111-0.508,0.233c-0.167,0.148-0.358,0.237-0.581,0.269c-0.207,0.012-0.4,0.086-0.571,0.222
						c-0.178,0.1-0.378,0.165-0.591,0.182c-0.213,0-0.397-0.011-0.542-0.049c-0.213-0.046-0.429-0.036-0.639,0.017
						c-0.204,0.071-0.361,0.154-0.46,0.258c-0.115,0.131-0.157,0.292-0.131,0.47c0.01,0.114,0.036,0.186,0.081,0.221
						C409.693,19.637,409.719,19.69,409.729,19.782z M423.062,20.488c-0.079-0.103-0.135-0.217-0.148-0.356
						c0.006-0.179-0.051-0.335-0.157-0.474c-0.101-0.214-0.187-0.381-0.259-0.506c-0.006-0.171-0.076-0.299-0.198-0.393
						c-0.286-0.207-0.504-0.41-0.665-0.591c-0.077-0.139-1.001-0.61-1.247-0.791c-0.145-0.104-0.279-0.143-0.384-0.122
						c-0.187,0.014-0.345-0.011-0.478-0.082c-0.151-0.006-0.264,0-0.357,0.031c-0.135,0.048-0.336,0.026-0.592-0.067
						c-0.246-0.046-0.479-0.072-0.692-0.082c-0.028,0-0.049,0-0.078,0c-0.192,0-0.395,0.032-0.614,0.099
						c-0.249,0.101-0.377,0.272-0.392,0.511c0,0.25,0.079,0.417,0.237,0.503l0.016,0.017c-0.213,0.176-0.443,0.324-0.696,0.457
						c-0.114,0.082-0.206,0.172-0.298,0.275c-0.115,0.079-0.308,0.213-0.594,0.406c-0.349,0.214-0.647,0.397-0.897,0.538
						c-0.151,0.068-0.328,0.178-0.543,0.321c-0.109,0.115-0.247,0.211-0.398,0.289c-0.186,0.069-0.328,0.161-0.429,0.276
						c-0.168,0.145-0.542,0.313-1.116,0.506c-0.246,0.042-0.427,0.099-0.538,0.167c-0.182,0.115-0.514,0.193-1.007,0.239
						c-0.266,0.011-0.498,0.106-0.689,0.285c-0.201,0.207-0.282,0.385-0.25,0.542c0.041,0.253,0.166,0.436,0.371,0.564
						c0.141,0.099,0.363,0.135,0.659,0.118c0.231-0.015,0.474-0.101,0.71-0.258c0.213-0.145,0.371-0.214,0.457-0.203
						c0.17,0,0.463-0.096,0.88-0.286c0.318-0.135,0.547-0.249,0.695-0.341c0.169-0.168,0.318-0.282,0.457-0.335
						c0.242-0.082,0.428-0.183,0.543-0.308c0.112-0.135,0.242-0.234,0.384-0.306c0.186-0.104,0.357-0.236,0.528-0.403
						c0.106-0.114,0.221-0.197,0.335-0.257c0.178-0.101,0.4-0.259,0.642-0.471c0.114-0.148,0.25-0.267,0.407-0.359
						c0.214-0.147,0.435-0.314,0.663-0.508c0.077-0.112,0.178-0.206,0.298-0.285c0.215-0.138,0.349-0.289,0.408-0.456h0.032
						c0.113,0.032,0.276,0.022,0.492-0.031c0.113-0.048,0.316-0.043,0.609,0.014c0.078,0,0.149,0.011,0.203,0.036
						c0.012,0.032,0.039,0.082,0.086,0.148c0.077,0.169,0.153,0.368,0.218,0.594c0.049,0.216,0.1,0.331,0.171,0.338
						c0.068-0.007,0.157-0.029,0.27-0.049c0.101-0.014,0.239-0.036,0.402-0.068c0.084-0.011,0.204-0.018,0.358-0.036
						c0.047,0.019,0.096,0.036,0.154,0.069c0.32,0.285,0.535,0.607,0.657,0.965c0.105,0.204,0.109,0.543,0.02,1.017
						c-0.135,0.453-0.306,0.781-0.506,0.984c-0.079,0.079-0.171,0.193-0.272,0.335c-0.282,0.35-0.542,0.578-0.778,0.679
						c-0.106,0.01-0.184,0.06-0.238,0.148c-0.147,0.15-0.491,0.272-1.039,0.376c-0.406,0.113-0.727,0.139-0.942,0.07
						c-0.079,0-0.161-0.027-0.234-0.07c-0.15-0.114-0.278-0.2-0.393-0.272c-0.242-0.131-0.449-0.148-0.607-0.032
						c-0.102,0.068-0.148,0.196-0.139,0.392c0.014,0.171,0.081,0.349,0.204,0.52c0.071,0.079,0.115,0.164,0.139,0.255
						c0.012,0.113,0.068,0.213,0.168,0.306c0.1,0.115,0.175,0.233,0.222,0.358c0.067,0.106,0.217,0.181,0.456,0.216
						c0.115,0.007,0.263,0.05,0.457,0.118c0.141,0.032,0.357-0.003,0.646-0.118c0.276-0.114,0.522-0.193,0.744-0.235
						c0.242-0.046,0.72-0.307,1.415-0.782c0.347-0.213,0.611-0.434,0.781-0.656c0.068-0.152,0.144-0.253,0.221-0.306
						c0.1-0.016,0.289-0.19,0.572-0.525c0.214-0.338,0.328-0.603,0.328-0.795c0-0.15,0.006-0.268,0.026-0.354
						c0.148-0.388,0.18-0.641,0.102-0.768c-0.043-0.178-0.029-0.331,0.034-0.456C423.119,20.678,423.119,20.574,423.062,20.488z
						 M416.814,23.05c0.01-0.14,0.048-0.265,0.1-0.375c0.221-0.101,0.456-0.275,0.711-0.525c0.122-0.179,0.264-0.315,0.44-0.406
						c0.217-0.174,0.457-0.364,0.716-0.578c0.092-0.15,0.207-0.256,0.335-0.338c0.25-0.147,0.393-0.336,0.44-0.557
						c0.013-0.239-0.111-0.391-0.369-0.46c-0.035-0.011-0.084-0.014-0.12-0.014c-0.142,0-0.299,0.057-0.469,0.185
						c-0.285,0.246-0.587,0.466-0.899,0.656c-0.137,0.082-0.242,0.19-0.321,0.321c-0.135,0.082-0.358,0.236-0.663,0.46
						c-0.383,0.25-0.699,0.457-0.964,0.61c-0.141,0.079-0.341,0.204-0.571,0.371c-0.141,0.135-0.289,0.247-0.462,0.324
						c-0.178,0.079-0.321,0.185-0.435,0.325c-0.187,0.145-0.586,0.335-1.22,0.574c-0.273,0.046-0.475,0.109-0.607,0.198
						c-0.208,0.14-0.564,0.239-1.083,0.308c-0.305,0.014-0.559,0.118-0.765,0.318c-0.213,0.22-0.306,0.42-0.27,0.613
						c0.07,0.267,0.211,0.474,0.427,0.609c0.165,0.101,0.406,0.133,0.721,0.101c0.253-0.015,0.513-0.111,0.784-0.286
						c0.228-0.171,0.402-0.253,0.507-0.239c0.177-0.014,0.499-0.132,0.962-0.358c0.35-0.141,0.6-0.276,0.741-0.384
						c0.183-0.185,0.349-0.306,0.512-0.374c0.281-0.114,0.482-0.226,0.588-0.338c0.114-0.148,0.25-0.276,0.41-0.375
						c0.01-0.009,0.025-0.015,0.032-0.015c0.006-0.011,0.036-0.017,0.081-0.017c0.146-0.006,0.264-0.023,0.339-0.036
						c0.108-0.007,0.199-0.007,0.292,0C416.742,23.342,416.771,23.237,416.814,23.05z"/>
				</g>
			</g>
			<polygon opacity="0.8" fill="#FFEBEB" points="399.639,28.268 400.067,28.268 400.067,31.394 399.681,31.394 397.593,28.987 
				397.593,31.394 397.171,31.394 397.171,28.268 397.532,28.268 399.639,30.696 			"/>
			<polygon opacity="0.8" fill="#FFE9E9" points="403.491,28.268 405.266,28.268 405.266,28.666 403.939,28.666 403.939,29.623 
				405.223,29.623 405.223,30.021 403.939,30.021 403.939,30.995 405.303,30.995 405.303,31.394 403.491,31.394 			"/>
			<polygon opacity="0.8" fill="#FFEBEB" points="412.118,28.268 412.564,28.268 411.307,31.408 411.209,31.408 410.181,28.869 
				409.148,31.408 409.054,31.408 407.792,28.268 408.241,28.268 409.108,30.424 409.975,28.268 410.398,28.268 411.272,30.424 			
				"/>
			<path opacity="0.8" fill="#FFEBEB" d="M416.008,30.129l-0.342-0.211c-0.207-0.128-0.365-0.258-0.457-0.386
				c-0.085-0.125-0.128-0.266-0.128-0.434c0-0.242,0.086-0.443,0.256-0.6c0.165-0.153,0.393-0.23,0.663-0.23
				c0.258,0,0.501,0.07,0.722,0.224v0.506c-0.225-0.221-0.472-0.325-0.731-0.325c-0.146,0-0.267,0.032-0.361,0.101
				c-0.092,0.069-0.142,0.154-0.142,0.26c0,0.092,0.036,0.182,0.105,0.265c0.07,0.082,0.18,0.164,0.335,0.256l0.341,0.2
				c0.381,0.227,0.574,0.52,0.574,0.87c0,0.249-0.082,0.457-0.256,0.614c-0.165,0.156-0.383,0.235-0.65,0.235
				c-0.314,0-0.592-0.097-0.845-0.289v-0.568c0.238,0.307,0.521,0.461,0.839,0.461c0.138,0,0.256-0.04,0.349-0.122
				c0.092-0.072,0.142-0.171,0.142-0.289C416.421,30.477,416.282,30.296,416.008,30.129"/>
		</g>
	</g>
</g>
</svg>
